<svg width="50" height="49" viewBox="0 0 50 49" fill="none" xmlns="http://www.w3.org/2000/svg">
<circle cx="27.3977" cy="25.8172" r="15.2796" fill="#090F47"/>
<path d="M26.7126 20.812C26.0838 20.812 25.4808 21.0618 25.0361 21.5065C24.5915 21.9511 24.3417 22.5542 24.3417 23.183C24.3417 23.8118 24.5915 24.4149 25.0361 24.8595C25.4808 25.3042 26.0838 25.5539 26.7126 25.5539C27.3415 25.5539 27.9445 25.3042 28.3892 24.8595C28.8338 24.4149 29.0836 23.8118 29.0836 23.183C29.0836 22.5542 28.8338 21.9511 28.3892 21.5065C27.9445 21.0618 27.3415 20.812 26.7126 20.812ZM31.1582 26.1467C29.6763 26.1467 28.4909 27.3322 28.4909 28.814C28.4909 30.2959 29.6763 31.4814 31.1582 31.4814C32.6401 31.4814 33.8255 30.2959 33.8255 28.814C33.8255 27.3322 32.6401 26.1467 31.1582 26.1467ZM26.7126 26.7394C24.0927 26.7394 21.9707 27.8004 21.9707 29.1104V30.2959H27.6018C27.4061 29.8263 27.3054 29.3227 27.3054 28.814C27.3079 28.1112 27.5026 27.4225 27.8685 26.8224C27.4951 26.775 27.1157 26.7394 26.7126 26.7394ZM31.1582 27.0358C32.1422 27.0358 32.9364 27.8301 32.9364 28.814C32.9364 29.146 32.8475 29.4542 32.6875 29.7031L30.2691 27.2848C30.518 27.1247 30.8263 27.0358 31.1582 27.0358ZM29.6289 27.9249L32.0473 30.3433C31.7984 30.5033 31.4901 30.5923 31.1582 30.5923C30.1743 30.5923 29.38 29.798 29.38 28.814C29.38 28.4821 29.4689 28.1739 29.6289 27.9249Z" fill="white"/>
<circle cx="2.63441" cy="25.817" r="2.63441" fill="url(#paint0_linear_1749_2203)"/>
<circle cx="45.3121" cy="13.172" r="2.63441" fill="url(#paint1_linear_1749_2203)"/>
<circle cx="33.7203" cy="46.3654" r="2.63441" fill="url(#paint2_linear_1749_2203)"/>
<circle cx="15.016" cy="8.6937" r="1.84409" fill="url(#paint3_linear_1749_2203)"/>
<circle cx="7.63998" cy="42.4139" r="1.84409" fill="url(#paint4_linear_1749_2203)"/>
<circle cx="47.683" cy="32.93" r="1.84409" fill="url(#paint5_linear_1749_2203)"/>
<circle cx="23.1827" cy="6.32281" r="1.05376" fill="url(#paint6_linear_1749_2203)"/>
<circle cx="40.5704" cy="5.26861" r="1.05376" fill="url(#paint7_linear_1749_2203)"/>
<circle cx="23.1827" cy="1.05376" r="1.05376" fill="url(#paint8_linear_1749_2203)"/>
<circle cx="10.0103" cy="2.6343" r="0.526882" fill="url(#paint9_linear_1749_2203)"/>
<circle cx="33.1939" cy="8.4302" r="0.526882" fill="url(#paint10_linear_1749_2203)"/>
<circle cx="16.3335" cy="43.731" r="0.526882" fill="url(#paint11_linear_1749_2203)"/>
<circle cx="10.0103" cy="16.3335" r="0.526882" fill="url(#paint12_linear_1749_2203)"/>
<circle cx="9.48391" cy="32.6665" r="0.526882" fill="url(#paint13_linear_1749_2203)"/>
<defs>
<linearGradient id="paint0_linear_1749_2203" x1="2.63441" y1="23.1826" x2="2.63441" y2="28.4514" gradientUnits="userSpaceOnUse">
<stop stop-color="#373F85"/>
<stop offset="1" stop-color="#FFB2A9"/>
</linearGradient>
<linearGradient id="paint1_linear_1749_2203" x1="45.3121" y1="10.5376" x2="45.3121" y2="15.8064" gradientUnits="userSpaceOnUse">
<stop stop-color="#373F85"/>
<stop offset="1" stop-color="#FFB2A9"/>
</linearGradient>
<linearGradient id="paint2_linear_1749_2203" x1="33.7203" y1="43.731" x2="33.7203" y2="48.9998" gradientUnits="userSpaceOnUse">
<stop stop-color="#373F85"/>
<stop offset="1" stop-color="#FFB2A9"/>
</linearGradient>
<linearGradient id="paint3_linear_1749_2203" x1="15.016" y1="6.84961" x2="15.016" y2="10.5378" gradientUnits="userSpaceOnUse">
<stop stop-color="#373F85"/>
<stop offset="1" stop-color="#FFB2A9"/>
</linearGradient>
<linearGradient id="paint4_linear_1749_2203" x1="7.63998" y1="40.5698" x2="7.63998" y2="44.258" gradientUnits="userSpaceOnUse">
<stop stop-color="#373F85"/>
<stop offset="1" stop-color="#FFB2A9"/>
</linearGradient>
<linearGradient id="paint5_linear_1749_2203" x1="47.683" y1="31.0859" x2="47.683" y2="34.7741" gradientUnits="userSpaceOnUse">
<stop stop-color="#373F85"/>
<stop offset="1" stop-color="#FFB2A9"/>
</linearGradient>
<linearGradient id="paint6_linear_1749_2203" x1="23.1827" y1="5.26904" x2="23.1827" y2="7.37657" gradientUnits="userSpaceOnUse">
<stop stop-color="#373F85"/>
<stop offset="1" stop-color="#FFB2A9"/>
</linearGradient>
<linearGradient id="paint7_linear_1749_2203" x1="40.5704" y1="4.21484" x2="40.5704" y2="6.32237" gradientUnits="userSpaceOnUse">
<stop stop-color="#373F85"/>
<stop offset="1" stop-color="#FFB2A9"/>
</linearGradient>
<linearGradient id="paint8_linear_1749_2203" x1="23.1827" y1="0" x2="23.1827" y2="2.10753" gradientUnits="userSpaceOnUse">
<stop stop-color="#373F85"/>
<stop offset="1" stop-color="#FFB2A9"/>
</linearGradient>
<linearGradient id="paint9_linear_1749_2203" x1="10.0103" y1="2.10742" x2="10.0103" y2="3.16119" gradientUnits="userSpaceOnUse">
<stop stop-color="#373F85"/>
<stop offset="1" stop-color="#FFB2A9"/>
</linearGradient>
<linearGradient id="paint10_linear_1749_2203" x1="33.1939" y1="7.90332" x2="33.1939" y2="8.95708" gradientUnits="userSpaceOnUse">
<stop stop-color="#373F85"/>
<stop offset="1" stop-color="#FFB2A9"/>
</linearGradient>
<linearGradient id="paint11_linear_1749_2203" x1="16.3335" y1="43.2041" x2="16.3335" y2="44.2579" gradientUnits="userSpaceOnUse">
<stop stop-color="#373F85"/>
<stop offset="1" stop-color="#FFB2A9"/>
</linearGradient>
<linearGradient id="paint12_linear_1749_2203" x1="10.0103" y1="15.8066" x2="10.0103" y2="16.8604" gradientUnits="userSpaceOnUse">
<stop stop-color="#373F85"/>
<stop offset="1" stop-color="#FFB2A9"/>
</linearGradient>
<linearGradient id="paint13_linear_1749_2203" x1="9.48391" y1="32.1396" x2="9.48391" y2="33.1934" gradientUnits="userSpaceOnUse">
<stop stop-color="#373F85"/>
<stop offset="1" stop-color="#FFB2A9"/>
</linearGradient>
</defs>
</svg>
