<svg width="50" height="49" viewBox="0 0 50 49" fill="none" xmlns="http://www.w3.org/2000/svg">
<circle cx="27.3977" cy="25.8172" r="15.2796" fill="#2AD495"/>
<g clip-path="url(#clip0_1749_2152)">
<path fill-rule="evenodd" clip-rule="evenodd" d="M33.631 20.8651C33.8224 21.0566 33.9299 21.3162 33.9299 21.5869C33.9299 21.8576 33.8224 22.1172 33.631 22.3086L25.9795 29.9601C25.8784 30.0612 25.7583 30.1415 25.6262 30.1962C25.4941 30.2509 25.3525 30.2791 25.2095 30.2791C25.0664 30.2791 24.9248 30.2509 24.7927 30.1962C24.6606 30.1415 24.5405 30.0612 24.4394 29.9601L20.6378 26.1592C20.5403 26.065 20.4626 25.9524 20.4091 25.8278C20.3555 25.7033 20.3274 25.5693 20.3262 25.4338C20.325 25.2982 20.3509 25.1638 20.4022 25.0384C20.4535 24.9129 20.5293 24.7989 20.6252 24.7031C20.721 24.6072 20.835 24.5314 20.9605 24.4801C21.0859 24.4288 21.2203 24.4029 21.3559 24.4041C21.4914 24.4053 21.6254 24.4335 21.7499 24.487C21.8745 24.5405 21.9871 24.6182 22.0813 24.7157L25.2091 27.8436L32.1868 20.8651C32.2816 20.7703 32.3942 20.695 32.5181 20.6437C32.642 20.5923 32.7748 20.5659 32.9089 20.5659C33.043 20.5659 33.1758 20.5923 33.2997 20.6437C33.4236 20.695 33.5362 20.7703 33.631 20.8651Z" fill="white"/>
</g>
<circle cx="2.63441" cy="25.817" r="2.63441" fill="url(#paint0_linear_1749_2152)"/>
<circle cx="45.3121" cy="13.172" r="2.63441" fill="url(#paint1_linear_1749_2152)"/>
<circle cx="33.7203" cy="46.3654" r="2.63441" fill="url(#paint2_linear_1749_2152)"/>
<circle cx="15.016" cy="8.6937" r="1.84409" fill="url(#paint3_linear_1749_2152)"/>
<circle cx="7.63998" cy="42.4139" r="1.84409" fill="url(#paint4_linear_1749_2152)"/>
<circle cx="47.683" cy="32.93" r="1.84409" fill="url(#paint5_linear_1749_2152)"/>
<circle cx="23.1827" cy="6.32281" r="1.05376" fill="url(#paint6_linear_1749_2152)"/>
<circle cx="40.5704" cy="5.26861" r="1.05376" fill="url(#paint7_linear_1749_2152)"/>
<circle cx="23.1827" cy="1.05376" r="1.05376" fill="url(#paint8_linear_1749_2152)"/>
<circle cx="10.0103" cy="2.6343" r="0.526882" fill="url(#paint9_linear_1749_2152)"/>
<circle cx="33.1939" cy="8.4302" r="0.526882" fill="url(#paint10_linear_1749_2152)"/>
<circle cx="16.3335" cy="43.731" r="0.526882" fill="url(#paint11_linear_1749_2152)"/>
<circle cx="10.0103" cy="16.3335" r="0.526882" fill="url(#paint12_linear_1749_2152)"/>
<circle cx="9.48391" cy="32.6665" r="0.526882" fill="url(#paint13_linear_1749_2152)"/>
<defs>
<linearGradient id="paint0_linear_1749_2152" x1="2.63441" y1="23.1826" x2="2.63441" y2="28.4514" gradientUnits="userSpaceOnUse">
<stop stop-color="#3CC190"/>
<stop offset="1" stop-color="#00FFA2"/>
</linearGradient>
<linearGradient id="paint1_linear_1749_2152" x1="45.3121" y1="10.5376" x2="45.3121" y2="15.8064" gradientUnits="userSpaceOnUse">
<stop stop-color="#3CC190"/>
<stop offset="1" stop-color="#00FFA2"/>
</linearGradient>
<linearGradient id="paint2_linear_1749_2152" x1="33.7203" y1="43.731" x2="33.7203" y2="48.9998" gradientUnits="userSpaceOnUse">
<stop stop-color="#3CC190"/>
<stop offset="1" stop-color="#00FFA2"/>
</linearGradient>
<linearGradient id="paint3_linear_1749_2152" x1="15.016" y1="6.84961" x2="15.016" y2="10.5378" gradientUnits="userSpaceOnUse">
<stop stop-color="#3CC190"/>
<stop offset="1" stop-color="#00FFA2"/>
</linearGradient>
<linearGradient id="paint4_linear_1749_2152" x1="7.63998" y1="40.5698" x2="7.63998" y2="44.258" gradientUnits="userSpaceOnUse">
<stop stop-color="#3CC190"/>
<stop offset="1" stop-color="#00FFA2"/>
</linearGradient>
<linearGradient id="paint5_linear_1749_2152" x1="47.683" y1="31.0859" x2="47.683" y2="34.7741" gradientUnits="userSpaceOnUse">
<stop stop-color="#3CC190"/>
<stop offset="1" stop-color="#00FFA2"/>
</linearGradient>
<linearGradient id="paint6_linear_1749_2152" x1="23.1827" y1="5.26904" x2="23.1827" y2="7.37657" gradientUnits="userSpaceOnUse">
<stop stop-color="#3CC190"/>
<stop offset="1" stop-color="#00FFA2"/>
</linearGradient>
<linearGradient id="paint7_linear_1749_2152" x1="40.5704" y1="4.21484" x2="40.5704" y2="6.32237" gradientUnits="userSpaceOnUse">
<stop stop-color="#3CC190"/>
<stop offset="1" stop-color="#00FFA2"/>
</linearGradient>
<linearGradient id="paint8_linear_1749_2152" x1="23.1827" y1="0" x2="23.1827" y2="2.10753" gradientUnits="userSpaceOnUse">
<stop stop-color="#3CC190"/>
<stop offset="1" stop-color="#00FFA2"/>
</linearGradient>
<linearGradient id="paint9_linear_1749_2152" x1="10.0103" y1="2.10742" x2="10.0103" y2="3.16119" gradientUnits="userSpaceOnUse">
<stop stop-color="#3CC190"/>
<stop offset="1" stop-color="#00FFA2"/>
</linearGradient>
<linearGradient id="paint10_linear_1749_2152" x1="33.1939" y1="7.90332" x2="33.1939" y2="8.95708" gradientUnits="userSpaceOnUse">
<stop stop-color="#3CC190"/>
<stop offset="1" stop-color="#00FFA2"/>
</linearGradient>
<linearGradient id="paint11_linear_1749_2152" x1="16.3335" y1="43.2041" x2="16.3335" y2="44.2579" gradientUnits="userSpaceOnUse">
<stop stop-color="#3CC190"/>
<stop offset="1" stop-color="#00FFA2"/>
</linearGradient>
<linearGradient id="paint12_linear_1749_2152" x1="10.0103" y1="15.8066" x2="10.0103" y2="16.8604" gradientUnits="userSpaceOnUse">
<stop stop-color="#3CC190"/>
<stop offset="1" stop-color="#00FFA2"/>
</linearGradient>
<linearGradient id="paint13_linear_1749_2152" x1="9.48391" y1="32.1396" x2="9.48391" y2="33.1934" gradientUnits="userSpaceOnUse">
<stop stop-color="#3CC190"/>
<stop offset="1" stop-color="#00FFA2"/>
</linearGradient>
<clipPath id="clip0_1749_2152">
<rect width="16.3333" height="16.3333" fill="white" transform="translate(18.9678 17.3872)"/>
</clipPath>
</defs>
</svg>
