<svg width="50" height="50" viewBox="0 0 50 50" fill="none" xmlns="http://www.w3.org/2000/svg">
<circle cx="27.3977" cy="26.6975" r="15.2796" fill="#FF4C38"/>
<g clip-path="url(#clip0_1749_2177)">
<path d="M30.3352 27.0271L29.5054 26.1972L30.7353 24.9525L29.5054 23.7225L30.3352 22.8779L31.58 24.1226L32.8099 22.8779L33.6546 23.7225L32.4098 24.9525L33.6546 26.1972L32.8099 27.0271L31.58 25.7971L30.3352 27.0271ZM25.3562 26.4343C24.7042 26.4343 24.146 26.2022 23.6817 25.7378C23.2174 25.2735 22.9852 24.7154 22.9852 24.0634C22.9852 23.4113 23.2174 22.8532 23.6817 22.3889C24.146 21.9245 24.7042 21.6924 25.3562 21.6924C26.0082 21.6924 26.5664 21.9245 27.0307 22.3889C27.495 22.8532 27.7272 23.4113 27.7272 24.0634C27.7272 24.7154 27.495 25.2735 27.0307 25.7378C26.5664 26.2022 26.0082 26.4343 25.3562 26.4343ZM20.6143 31.1763V29.5166C20.6143 29.1807 20.7008 28.8721 20.8739 28.5907C21.047 28.3094 21.2765 28.0944 21.5626 27.9458C22.1751 27.6396 22.7975 27.41 23.4298 27.257C24.062 27.1041 24.7042 27.0275 25.3562 27.0271C26.0082 27.0271 26.6503 27.1037 27.2826 27.257C27.9149 27.4104 28.5372 27.64 29.1497 27.9458C29.4362 28.094 29.666 28.309 29.8391 28.5907C30.0122 28.8725 30.0985 29.1811 30.0981 29.5166V31.1763H20.6143Z" fill="white"/>
</g>
<circle cx="2.63441" cy="26.6974" r="2.63441" fill="url(#paint0_linear_1749_2177)"/>
<circle cx="45.3121" cy="14.0524" r="2.63441" fill="url(#paint1_linear_1749_2177)"/>
<circle cx="33.7203" cy="47.2457" r="2.63441" fill="url(#paint2_linear_1749_2177)"/>
<circle cx="15.016" cy="9.57407" r="1.84409" fill="url(#paint3_linear_1749_2177)"/>
<circle cx="7.63998" cy="43.2943" r="1.84409" fill="url(#paint4_linear_1749_2177)"/>
<circle cx="47.683" cy="33.8104" r="1.84409" fill="url(#paint5_linear_1749_2177)"/>
<circle cx="23.1827" cy="7.20318" r="1.05376" fill="url(#paint6_linear_1749_2177)"/>
<circle cx="40.5704" cy="6.14898" r="1.05376" fill="url(#paint7_linear_1749_2177)"/>
<circle cx="23.1827" cy="1.93413" r="1.05376" fill="url(#paint8_linear_1749_2177)"/>
<circle cx="10.0103" cy="3.51467" r="0.526882" fill="url(#paint9_linear_1749_2177)"/>
<circle cx="33.1939" cy="9.31057" r="0.526882" fill="url(#paint10_linear_1749_2177)"/>
<circle cx="16.3335" cy="44.6114" r="0.526882" fill="url(#paint11_linear_1749_2177)"/>
<circle cx="10.0103" cy="17.2139" r="0.526882" fill="url(#paint12_linear_1749_2177)"/>
<circle cx="9.48391" cy="33.5469" r="0.526882" fill="url(#paint13_linear_1749_2177)"/>
<defs>
<linearGradient id="paint0_linear_1749_2177" x1="2.63441" y1="24.063" x2="2.63441" y2="29.3318" gradientUnits="userSpaceOnUse">
<stop stop-color="#FF4C38"/>
<stop offset="1" stop-color="#FFA196"/>
</linearGradient>
<linearGradient id="paint1_linear_1749_2177" x1="45.3121" y1="11.418" x2="45.3121" y2="16.6868" gradientUnits="userSpaceOnUse">
<stop stop-color="#FF4C38"/>
<stop offset="1" stop-color="#FFA196"/>
</linearGradient>
<linearGradient id="paint2_linear_1749_2177" x1="33.7203" y1="44.6113" x2="33.7203" y2="49.8801" gradientUnits="userSpaceOnUse">
<stop stop-color="#FF4C38"/>
<stop offset="1" stop-color="#FFA196"/>
</linearGradient>
<linearGradient id="paint3_linear_1749_2177" x1="15.016" y1="7.72998" x2="15.016" y2="11.4182" gradientUnits="userSpaceOnUse">
<stop stop-color="#FF4C38"/>
<stop offset="1" stop-color="#FFA196"/>
</linearGradient>
<linearGradient id="paint4_linear_1749_2177" x1="7.63998" y1="41.4502" x2="7.63998" y2="45.1384" gradientUnits="userSpaceOnUse">
<stop stop-color="#FF4C38"/>
<stop offset="1" stop-color="#FFA196"/>
</linearGradient>
<linearGradient id="paint5_linear_1749_2177" x1="47.683" y1="31.9663" x2="47.683" y2="35.6545" gradientUnits="userSpaceOnUse">
<stop stop-color="#FF4C38"/>
<stop offset="1" stop-color="#FFA196"/>
</linearGradient>
<linearGradient id="paint6_linear_1749_2177" x1="23.1827" y1="6.14941" x2="23.1827" y2="8.25694" gradientUnits="userSpaceOnUse">
<stop stop-color="#FF4C38"/>
<stop offset="1" stop-color="#FFA196"/>
</linearGradient>
<linearGradient id="paint7_linear_1749_2177" x1="40.5704" y1="5.09521" x2="40.5704" y2="7.20274" gradientUnits="userSpaceOnUse">
<stop stop-color="#FF4C38"/>
<stop offset="1" stop-color="#FFA196"/>
</linearGradient>
<linearGradient id="paint8_linear_1749_2177" x1="23.1827" y1="0.880371" x2="23.1827" y2="2.9879" gradientUnits="userSpaceOnUse">
<stop stop-color="#FF4C38"/>
<stop offset="1" stop-color="#FFA196"/>
</linearGradient>
<linearGradient id="paint9_linear_1749_2177" x1="10.0103" y1="2.98779" x2="10.0103" y2="4.04156" gradientUnits="userSpaceOnUse">
<stop stop-color="#FF4C38"/>
<stop offset="1" stop-color="#FFA196"/>
</linearGradient>
<linearGradient id="paint10_linear_1749_2177" x1="33.1939" y1="8.78369" x2="33.1939" y2="9.83745" gradientUnits="userSpaceOnUse">
<stop stop-color="#FF4C38"/>
<stop offset="1" stop-color="#FFA196"/>
</linearGradient>
<linearGradient id="paint11_linear_1749_2177" x1="16.3335" y1="44.0845" x2="16.3335" y2="45.1382" gradientUnits="userSpaceOnUse">
<stop stop-color="#FF4C38"/>
<stop offset="1" stop-color="#FFA196"/>
</linearGradient>
<linearGradient id="paint12_linear_1749_2177" x1="10.0103" y1="16.687" x2="10.0103" y2="17.7408" gradientUnits="userSpaceOnUse">
<stop stop-color="#FF4C38"/>
<stop offset="1" stop-color="#FFA196"/>
</linearGradient>
<linearGradient id="paint13_linear_1749_2177" x1="9.48391" y1="33.02" x2="9.48391" y2="34.0738" gradientUnits="userSpaceOnUse">
<stop stop-color="#FF4C38"/>
<stop offset="1" stop-color="#FFA196"/>
</linearGradient>
<clipPath id="clip0_1749_2177">
<rect width="14.2258" height="14.2258" fill="white" transform="translate(20.0215 19.3213)"/>
</clipPath>
</defs>
</svg>
