<svg width="32" height="32" viewBox="0 0 32 32" fill="none" xmlns="http://www.w3.org/2000/svg">
<rect width="32" height="32" rx="6" fill="#7ACDAF"/>
<path d="M16.0002 7.66699C17.1052 7.66699 18.165 8.10598 18.9464 8.88738C19.7278 9.66878 20.1668 10.7286 20.1668 11.8337V14.3337C20.8299 14.3337 21.4658 14.5971 21.9346 15.0659C22.4034 15.5347 22.6668 16.1706 22.6668 16.8337V21.8337C22.6668 22.4967 22.4034 23.1326 21.9346 23.6014C21.4658 24.0703 20.8299 24.3337 20.1668 24.3337H11.8335C11.1705 24.3337 10.5346 24.0703 10.0657 23.6014C9.59689 23.1326 9.3335 22.4967 9.3335 21.8337V16.8337C9.3335 16.1706 9.59689 15.5347 10.0657 15.0659C10.5346 14.5971 11.1705 14.3337 11.8335 14.3337V11.8337C11.8335 10.7286 12.2725 9.66878 13.0539 8.88738C13.8353 8.10598 14.8951 7.66699 16.0002 7.66699ZM16.0002 17.667C15.5797 17.6669 15.1747 17.8257 14.8664 18.1116C14.5581 18.3975 14.3692 18.7894 14.3377 19.2087L14.3335 19.3337C14.3335 19.6633 14.4312 19.9855 14.6144 20.2596C14.7975 20.5337 15.0578 20.7473 15.3624 20.8735C15.6669 20.9996 16.002 21.0326 16.3253 20.9683C16.6486 20.904 16.9456 20.7453 17.1787 20.5122C17.4118 20.2791 17.5705 19.9821 17.6348 19.6588C17.6991 19.3355 17.6661 19.0004 17.54 18.6959C17.4138 18.3913 17.2002 18.131 16.9261 17.9479C16.652 17.7647 16.3298 17.667 16.0002 17.667ZM16.0002 9.33366C15.3371 9.33366 14.7012 9.59705 14.2324 10.0659C13.7636 10.5347 13.5002 11.1706 13.5002 11.8337V14.3337H18.5002V11.8337C18.5002 11.1706 18.2368 10.5347 17.7679 10.0659C17.2991 9.59705 16.6632 9.33366 16.0002 9.33366Z" fill="white"/>
</svg>
