<svg width="33" height="33" viewBox="0 0 33 33" fill="none" xmlns="http://www.w3.org/2000/svg">
<rect width="33" height="33" rx="6" fill="#7ACDAF"/>
<path fill-rule="evenodd" clip-rule="evenodd" d="M18.0001 8C18.0001 7.73478 17.8947 7.48043 17.7072 7.29289C17.5197 7.10536 17.2653 7 17.0001 7C16.7349 7 16.4805 7.10536 16.293 7.29289C16.1055 7.48043 16.0001 7.73478 16.0001 8V8.75H15.4431C14.3711 8.74993 13.3394 9.15839 12.558 9.89224C11.7766 10.6261 11.3043 11.6301 11.2371 12.7L11.0161 16.234C10.9318 17.5814 10.4794 18.8799 9.7081 19.988C9.54874 20.2171 9.45136 20.4835 9.42545 20.7613C9.39953 21.0392 9.44596 21.319 9.56022 21.5736C9.67447 21.8281 9.85267 22.0488 10.0775 22.2142C10.3023 22.3795 10.566 22.4838 10.8431 22.517L14.2501 22.925V24C14.2501 24.7293 14.5398 25.4288 15.0556 25.9445C15.5713 26.4603 16.2708 26.75 17.0001 26.75C17.7294 26.75 18.4289 26.4603 18.9446 25.9445C19.4604 25.4288 19.7501 24.7293 19.7501 24V22.925L23.1571 22.516C23.434 22.4827 23.6976 22.3784 23.9223 22.2131C24.1469 22.0478 24.325 21.8273 24.4393 21.5729C24.5535 21.3184 24.6 21.0388 24.5742 20.7611C24.5484 20.4834 24.4512 20.2171 24.2921 19.988C23.5208 18.88 23.0683 17.5815 22.9841 16.234L22.7631 12.701C22.6962 11.631 22.2239 10.6267 21.4425 9.8926C20.6611 9.15855 19.6292 8.74995 18.5571 8.75H18.0001V8ZM15.4431 10.25C14.7527 10.2499 14.0882 10.513 13.5849 10.9856C13.0816 11.4582 12.7774 12.1049 12.7341 12.794L12.5141 16.328C12.4124 17.949 11.868 19.511 10.9401 20.844C10.9286 20.8606 10.9215 20.8798 10.9196 20.8999C10.9178 20.92 10.9211 20.9403 10.9294 20.9587C10.9376 20.9771 10.9505 20.9931 10.9667 21.005C10.983 21.017 11.0021 21.0246 11.0221 21.027L14.7591 21.476C16.2481 21.654 17.7521 21.654 19.2411 21.476L22.9781 21.027C22.9981 21.0246 23.0172 21.017 23.0335 21.005C23.0497 20.9931 23.0626 20.9771 23.0708 20.9587C23.0791 20.9403 23.0824 20.92 23.0806 20.8999C23.0787 20.8798 23.0716 20.8606 23.0601 20.844C22.1325 19.5109 21.5885 17.9489 21.4871 16.328L21.2661 12.794C21.2229 12.1049 20.9186 11.4582 20.4153 10.9856C19.912 10.513 19.2475 10.2499 18.5571 10.25H15.4431ZM17.0001 25.25C16.3101 25.25 15.7501 24.69 15.7501 24V23.25H18.2501V24C18.2501 24.69 17.6901 25.25 17.0001 25.25Z" fill="white"/>
</svg>
