<svg width="32" height="32" viewBox="0 0 32 32" fill="none" xmlns="http://www.w3.org/2000/svg">
<rect width="32" height="32" rx="6" fill="#7ACDAF"/>
<path d="M15.95 22C16.3 22 16.596 21.879 16.838 21.637C17.08 21.395 17.2007 21.0993 17.2 20.75C17.2 20.4 17.0793 20.104 16.838 19.862C16.5967 19.62 16.3007 19.4993 15.95 19.5C15.6 19.5 15.3043 19.621 15.063 19.863C14.8217 20.105 14.7007 20.4007 14.7 20.75C14.7 21.1 14.821 21.396 15.063 21.638C15.305 21.88 15.6007 22.0007 15.95 22ZM15.05 18.15H16.9C16.9 17.6 16.9627 17.1667 17.088 16.85C17.2133 16.5333 17.5673 16.1 18.15 15.55C18.5833 15.1167 18.925 14.704 19.175 14.312C19.425 13.92 19.55 13.4493 19.55 12.9C19.55 11.9667 19.2083 11.25 18.525 10.75C17.8417 10.25 17.0333 10 16.1 10C15.15 10 14.3793 10.25 13.788 10.75C13.1967 11.25 12.784 11.85 12.55 12.55L14.2 13.2C14.2833 12.9 14.471 12.575 14.763 12.225C15.055 11.875 15.5007 11.7 16.1 11.7C16.6333 11.7 17.0333 11.846 17.3 12.138C17.5667 12.43 17.7 12.7507 17.7 13.1C17.7 13.4333 17.6 13.746 17.4 14.038C17.2 14.33 16.95 14.6007 16.65 14.85C15.9167 15.5 15.4667 15.9917 15.3 16.325C15.1333 16.6583 15.05 17.2667 15.05 18.15ZM16 26C14.6167 26 13.3167 25.7377 12.1 25.213C10.8833 24.6883 9.825 23.9757 8.925 23.075C8.025 22.175 7.31267 21.1167 6.788 19.9C6.26333 18.6833 6.00067 17.3833 6 16C6 14.6167 6.26267 13.3167 6.788 12.1C7.31333 10.8833 8.02567 9.825 8.925 8.925C9.825 8.025 10.8833 7.31267 12.1 6.788C13.3167 6.26333 14.6167 6.00067 16 6C17.3833 6 18.6833 6.26267 19.9 6.788C21.1167 7.31333 22.175 8.02567 23.075 8.925C23.975 9.825 24.6877 10.8833 25.213 12.1C25.7383 13.3167 26.0007 14.6167 26 16C26 17.3833 25.7373 18.6833 25.212 19.9C24.6867 21.1167 23.9743 22.175 23.075 23.075C22.175 23.975 21.1167 24.6877 19.9 25.213C18.6833 25.7383 17.3833 26.0007 16 26Z" fill="white"/>
</svg>
