<svg width="34" height="33" viewBox="0 0 34 33" fill="none" xmlns="http://www.w3.org/2000/svg">
<rect width="33.25" height="33" rx="6" fill="#7ACDAF"/>
<g clip-path="url(#clip0_1758_2661)">
<path d="M12.375 16.5C14.4303 16.5 16.0938 14.8365 16.0938 12.7812C16.0938 10.726 14.4303 9.0625 12.375 9.0625C10.3197 9.0625 8.65625 10.726 8.65625 12.7812C8.65625 14.8365 10.3197 16.5 12.375 16.5ZM14.925 17.5625H14.6494C13.9588 17.8945 13.1918 18.0938 12.375 18.0938C11.5582 18.0938 10.7945 17.8945 10.1006 17.5625H9.825C7.71328 17.5625 6 19.2758 6 21.3875V22.3438C6 23.2236 6.71387 23.9375 7.59375 23.9375H17.1562C18.0361 23.9375 18.75 23.2236 18.75 22.3438V21.3875C18.75 19.2758 17.0367 17.5625 14.925 17.5625ZM21.9375 16.5C23.6973 16.5 25.125 15.0723 25.125 13.3125C25.125 11.5527 23.6973 10.125 21.9375 10.125C20.1777 10.125 18.75 11.5527 18.75 13.3125C18.75 15.0723 20.1777 16.5 21.9375 16.5ZM23.5312 17.5625H23.4051C22.9436 17.7219 22.4555 17.8281 21.9375 17.8281C21.4195 17.8281 20.9314 17.7219 20.4699 17.5625H20.3438C19.6664 17.5625 19.0422 17.7584 18.4943 18.0738C19.3045 18.9471 19.8125 20.1059 19.8125 21.3875V22.6625C19.8125 22.7355 19.7959 22.8053 19.7926 22.875H25.6562C26.5361 22.875 27.25 22.1611 27.25 21.2812C27.25 19.226 25.5865 17.5625 23.5312 17.5625Z" fill="white"/>
</g>
<defs>
<clipPath id="clip0_1758_2661">
<rect width="21.25" height="17" fill="white" transform="translate(6 8)"/>
</clipPath>
</defs>
</svg>
