<svg width="19" height="19" viewBox="0 0 19 19" fill="none" xmlns="http://www.w3.org/2000/svg">
<path d="M9.15082 0.698425C4.11787 0.698425 0 4.81629 0 9.84924C0 14.8822 4.11787 19.0001 9.15082 19.0001C10.798 19.0001 12.3536 18.5425 13.7262 17.8105C14.1838 17.5359 14.2753 16.9869 14.0923 16.5293C13.8177 16.0718 13.2687 15.9803 12.8111 16.1633C9.33383 18.1765 4.84993 16.9869 2.83675 13.5096C0.823573 10.0323 2.01318 5.54836 5.49049 3.53518C8.9678 1.522 13.4517 2.71161 15.4649 6.18892C16.1054 7.28701 16.4715 8.56813 16.4715 9.84924V10.5813C16.4715 11.4964 15.7394 12.2285 14.8243 12.2285C13.9092 12.2285 13.1772 11.4964 13.1772 10.5813V6.64646C13.1772 6.09741 12.8111 5.73138 12.2621 5.73138C11.8046 5.73138 11.4385 6.0059 11.347 6.46344C9.51685 5.18233 6.86311 5.63987 5.582 7.47003C4.30088 9.30019 4.75842 11.9539 6.58859 13.235C8.32724 14.4247 10.6149 14.1501 11.9876 12.5945C13.1772 14.0586 15.2819 14.3331 16.746 13.235C17.5696 12.5945 18.1186 11.5879 18.1186 10.4898V9.84924C18.3016 4.81629 14.1838 0.698425 9.15082 0.698425ZM9.15082 12.1369C7.8697 12.1369 6.86311 11.1304 6.86311 9.84924C6.86311 8.56813 7.8697 7.56154 9.15082 7.56154C10.4319 7.56154 11.4385 8.56813 11.4385 9.84924C11.4385 11.1304 10.4319 12.1369 9.15082 12.1369Z" fill="#2AD495"/>
</svg>
