<svg width="18" height="19" viewBox="0 0 18 19" fill="none" xmlns="http://www.w3.org/2000/svg">
<path d="M13 7H12.25V4.75C12.25 2.13125 10.1187 0 7.5 0C4.88125 0 2.75 2.13125 2.75 4.75V7H2C1.17188 7 0.5 7.67188 0.5 8.5V14.5C0.5 15.3281 1.17188 16 2 16H13C13.8281 16 14.5 15.3281 14.5 14.5V8.5C14.5 7.67188 13.8281 7 13 7ZM9.75 7H5.25V4.75C5.25 3.50938 6.25938 2.5 7.5 2.5C8.74063 2.5 9.75 3.50938 9.75 4.75V7Z" fill="#FF637B"/>
<circle cx="12.7498" cy="13.75" r="3.39286" fill="white"/>
<path fill-rule="evenodd" clip-rule="evenodd" d="M12.75 18.5C13.3738 18.5 13.9914 18.3771 14.5677 18.1384C15.144 17.8997 15.6677 17.5498 16.1088 17.1088C16.5498 16.6677 16.8997 16.144 17.1384 15.5677C17.3771 14.9914 17.5 14.3738 17.5 13.75C17.5 13.1262 17.3771 12.5086 17.1384 11.9323C16.8997 11.356 16.5498 10.8323 16.1088 10.3912C15.6677 9.95016 15.144 9.60028 14.5677 9.36157C13.9914 9.12286 13.3738 9 12.75 9C11.4902 9 10.282 9.50044 9.39124 10.3912C8.50045 11.282 8 12.4902 8 13.75C8 15.0098 8.50045 16.218 9.39124 17.1088C10.282 17.9996 11.4902 18.5 12.75 18.5ZM12.6276 15.6711L15.2664 12.5044L14.4558 11.8289L12.1863 14.5517L11.012 13.3769L10.2658 14.1231L11.8491 15.7065L12.2576 16.115L12.6276 15.6711Z" fill="#2AD495"/>
</svg>
