<svg width="15" height="17" viewBox="0 0 15 17" fill="none" xmlns="http://www.w3.org/2000/svg">
<path d="M13 7.69843H12.25V5.44843C12.25 2.82968 10.1188 0.698425 7.5 0.698425C4.88125 0.698425 2.75 2.82968 2.75 5.44843V7.69843H2C1.17188 7.69843 0.5 8.3703 0.5 9.19843V15.1984C0.5 16.0266 1.17188 16.6984 2 16.6984H13C13.8281 16.6984 14.5 16.0266 14.5 15.1984V9.19843C14.5 8.3703 13.8281 7.69843 13 7.69843ZM9.75 7.69843H5.25V5.44843C5.25 4.2078 6.25937 3.19843 7.5 3.19843C8.74063 3.19843 9.75 4.2078 9.75 5.44843V7.69843Z" fill="#FF637B"/>
</svg>
