<svg width="13" height="14" viewBox="0 0 13 14" fill="none" xmlns="http://www.w3.org/2000/svg">
<path d="M5.7248 0.5C2.56823 0.5 0 3.06826 0 6.22487C0 9.38165 2.56823 11.9497 5.7248 11.9497C8.88154 11.9497 11.4496 9.38165 11.4496 6.22487C11.4496 3.06826 8.88154 0.5 5.7248 0.5ZM5.7248 10.8929C3.15093 10.8929 1.05689 8.79879 1.05689 6.22489C1.05689 3.65099 3.15093 1.5569 5.7248 1.5569C8.29866 1.5569 10.3927 3.65097 10.3927 6.22487C10.3927 8.79876 8.29866 10.8929 5.7248 10.8929Z" fill="#677294"/>
<path d="M12.8449 12.5979L9.81515 9.56817C9.6087 9.36172 9.27437 9.36172 9.06792 9.56817C8.86147 9.77444 8.86147 10.1091 9.06792 10.3154L12.0976 13.3452C12.2009 13.4484 12.336 13.5 12.4713 13.5C12.6064 13.5 12.7416 13.4484 12.8449 13.3452C13.0513 13.1389 13.0513 12.8042 12.8449 12.5979Z" fill="#677294"/>
</svg>
