<svg width="81" height="81" viewBox="0 0 81 81" fill="none" xmlns="http://www.w3.org/2000/svg">
<circle cx="40.5" cy="30.5" r="10.5" stroke="#7ACDAF" stroke-width="5"/>
<path fill-rule="evenodd" clip-rule="evenodd" d="M40.5 3.375C19.9969 3.375 3.375 19.9969 3.375 40.5C3.375 61.0031 19.9969 77.625 40.5 77.625C61.0031 77.625 77.625 61.0031 77.625 40.5C77.625 19.9969 61.0031 3.375 40.5 3.375ZM10.125 40.5C10.125 47.5537 12.5314 54.0472 16.5645 59.2043C19.3969 55.4847 23.0509 52.4703 27.2411 50.3966C31.4313 48.3228 36.0441 47.2459 40.7194 47.25C45.3341 47.2456 49.889 48.2946 54.0369 50.3171C58.1848 52.3396 61.8164 55.2822 64.6549 58.9207C67.5791 55.0854 69.5481 50.6089 70.3988 45.8615C71.2495 41.1141 70.9575 36.2324 69.5469 31.6203C68.1364 27.0082 65.6479 22.7983 62.2873 19.3389C58.9267 15.8795 54.7906 13.27 50.2213 11.7265C45.652 10.1829 40.7808 9.7496 36.0108 10.4624C31.2408 11.1752 26.709 13.0136 22.7906 15.8256C18.8721 18.6375 15.6796 22.3421 13.4771 26.6328C11.2747 30.9235 10.1256 35.677 10.125 40.5ZM40.5 70.875C33.5271 70.8855 26.7646 68.4867 21.357 64.0845C23.5336 60.9685 26.4308 58.4244 29.8019 56.6686C33.173 54.9128 36.9184 53.9973 40.7194 54C44.4729 53.997 48.173 54.8896 51.5124 56.6036C54.8517 58.3176 57.734 60.8035 59.9198 63.855C54.4701 68.4001 47.5962 70.885 40.5 70.875Z" fill="#7ACDAF"/>
</svg>
