<svg width="20" height="21" viewBox="0 0 20 21" fill="none" xmlns="http://www.w3.org/2000/svg">
<path fill-rule="evenodd" clip-rule="evenodd" d="M7.06221 10.6815C7.06221 10.4699 7.14363 10.2584 7.30566 10.0972L10.6293 6.7912C10.9542 6.46804 11.4793 6.46804 11.8042 6.7912C12.1291 7.11436 12.1291 7.63671 11.8042 7.95987L9.05804 10.6914L11.7003 13.4131C12.0186 13.7429 12.0094 14.2644 11.6796 14.5818C11.3497 14.8991 10.8229 14.8901 10.5047 14.5619L7.29569 11.2559C7.13948 11.0948 7.06221 10.8882 7.06221 10.6815Z" fill="black"/>
<mask id="mask0_1697_1619" style="mask-type:luminance" maskUnits="userSpaceOnUse" x="7" y="6" width="6" height="9">
<path fill-rule="evenodd" clip-rule="evenodd" d="M7.06221 10.6815C7.06221 10.4699 7.14363 10.2584 7.30566 10.0972L10.6293 6.7912C10.9542 6.46804 11.4793 6.46804 11.8042 6.7912C12.1291 7.11436 12.1291 7.63671 11.8042 7.95987L9.05804 10.6914L11.7003 13.4131C12.0186 13.7429 12.0094 14.2644 11.6796 14.5818C11.3497 14.8991 10.8229 14.8901 10.5047 14.5619L7.29569 11.2559C7.13948 11.0948 7.06221 10.8882 7.06221 10.6815Z" fill="white"/>
</mask>
<g mask="url(#mask0_1697_1619)">
<rect x="19.9414" y="0.763672" width="19.836" height="19.9418" transform="rotate(90 19.9414 0.763672)" fill="black"/>
</g>
</svg>
