<svg width="21" height="21" viewBox="0 0 21 21" fill="none" xmlns="http://www.w3.org/2000/svg">
<path fill-rule="evenodd" clip-rule="evenodd" d="M12.9974 10.6818C12.9974 10.8933 12.9159 11.1049 12.7539 11.2661L9.43028 14.5721C9.1054 14.8952 8.58027 14.8952 8.25538 14.5721C7.9305 14.2489 7.9305 13.7266 8.25538 13.4034L11.0015 10.6718L8.35925 7.95018C8.04101 7.6204 8.05015 7.09888 8.38002 6.78151C8.70989 6.46413 9.23668 6.47322 9.55492 6.80134L12.7639 10.1073C12.9201 10.2685 12.9974 10.4751 12.9974 10.6818Z" fill="black"/>
<mask id="mask0_1697_1624" style="mask-type:luminance" maskUnits="userSpaceOnUse" x="8" y="6" width="5" height="9">
<path fill-rule="evenodd" clip-rule="evenodd" d="M12.9974 10.6818C12.9974 10.8933 12.9159 11.1049 12.7539 11.2661L9.43028 14.5721C9.1054 14.8952 8.58027 14.8952 8.25538 14.5721C7.9305 14.2489 7.9305 13.7266 8.25538 13.4034L11.0015 10.6718L8.35925 7.95018C8.04101 7.6204 8.05015 7.09888 8.38002 6.78151C8.70989 6.46413 9.23668 6.47322 9.55492 6.80134L12.7639 10.1073C12.9201 10.2685 12.9974 10.4751 12.9974 10.6818Z" fill="white"/>
</mask>
<g mask="url(#mask0_1697_1624)">
<rect x="0.118164" y="20.5996" width="19.836" height="19.9418" transform="rotate(-90 0.118164 20.5996)" fill="black"/>
</g>
</svg>
