<svg width="12" height="12" viewBox="0 0 12 12" fill="none" xmlns="http://www.w3.org/2000/svg">
<path fill-rule="evenodd" clip-rule="evenodd" d="M1.45738 0.570299C1.30779 0.425823 1.10744 0.345879 0.899486 0.347686C0.691528 0.349493 0.4926 0.432907 0.345546 0.57996C0.198493 0.727014 0.115079 0.925942 0.113272 1.1339C0.111465 1.34186 0.191409 1.54221 0.335885 1.69179L4.53395 5.88986L0.335885 10.0879C0.260132 10.1611 0.19971 10.2486 0.158142 10.3454C0.116575 10.4421 0.0946951 10.5462 0.0937799 10.6515C0.0928648 10.7568 0.112932 10.8613 0.152812 10.9588C0.192692 11.0562 0.251584 11.1448 0.326054 11.2192C0.400524 11.2937 0.489079 11.3526 0.586552 11.3925C0.684026 11.4324 0.788465 11.4524 0.893777 11.4515C0.999089 11.4506 1.10316 11.4287 1.19993 11.3872C1.2967 11.3456 1.38421 11.2852 1.45738 11.2094L5.65544 7.01135L9.85351 11.2094C10.0031 11.3539 10.2034 11.4338 10.4114 11.432C10.6194 11.4302 10.8183 11.3468 10.9653 11.1998C11.1124 11.0527 11.1958 10.8538 11.1976 10.6458C11.1994 10.4379 11.1195 10.2375 10.975 10.0879L6.77694 5.88986L10.975 1.69179C11.1195 1.54221 11.1994 1.34186 11.1976 1.1339C11.1958 0.925942 11.1124 0.727014 10.9653 0.57996C10.8183 0.432907 10.6194 0.349493 10.4114 0.347686C10.2034 0.345879 10.0031 0.425823 9.85351 0.570299L5.65544 4.76836L1.45738 0.570299Z" fill="#090F47"/>
</svg>
