<svg width="10" height="8" viewBox="0 0 10 8" fill="none" xmlns="http://www.w3.org/2000/svg">
<path d="M9.61139 0.71899C9.39435 0.475025 9.08886 0.327782 8.76303 0.309636C8.4372 0.290955 8.11742 0.402496 7.874 0.620078L3.40741 4.60476L2.32881 3.00642C2.14638 2.73553 1.86341 2.54872 1.54308 2.48608C1.2222 2.42399 0.890325 2.49157 0.619437 2.67399C0.348549 2.85696 0.161734 3.13938 0.0996454 3.46026C0.0375556 3.78059 0.105142 4.11302 0.288107 4.38336L2.15512 7.14991C2.35403 7.44443 2.66997 7.63839 3.02272 7.68235C3.07327 7.68894 3.12437 7.69223 3.17547 7.69223C3.47767 7.69223 3.76944 7.58124 3.99471 7.37958L9.51248 2.4564C9.75644 2.23936 9.90369 1.93387 9.92183 1.60804C9.94052 1.28221 9.82897 0.962406 9.61139 0.71899Z" fill="white"/>
</svg>
