<svg width="173" height="188" viewBox="0 0 173 188" fill="none" xmlns="http://www.w3.org/2000/svg">
<circle cx="74.7511" cy="21.2685" r="7.14517" fill="#2AD495"/>
<circle cx="100.81" cy="21.2685" r="7.14517" fill="#2AD495"/>
<path d="M55.8772 29.3134C52.8793 29.3448 50.4131 31.8368 51.1775 34.7358C51.6777 36.6327 52.4324 38.4896 53.4336 40.277C55.3646 43.7245 58.1748 46.8459 61.7035 49.4629C65.2323 52.08 69.4106 54.1415 73.9998 55.5298C78.589 56.918 83.4993 57.6058 88.4504 57.5538C93.4014 57.5019 98.2962 56.7112 102.855 55.227C107.414 53.7427 111.548 51.594 115.022 48.9034C118.495 46.2129 121.239 43.0332 123.097 39.546C124.06 37.738 124.776 35.8656 125.236 33.9586C125.94 31.0442 123.422 28.6046 120.424 28.6361C117.426 28.6675 115.097 31.1893 114.118 34.023C113.827 34.8639 113.465 35.692 113.034 36.5019C111.711 38.9849 109.757 41.249 107.284 43.1648C104.811 45.0806 101.867 46.6106 98.6209 47.6674C95.3746 48.7242 91.8893 49.2872 88.364 49.3242C84.8387 49.3612 81.3423 48.8715 78.0746 47.883C74.8069 46.8945 71.8318 45.4266 69.3192 43.5632C66.8066 41.6997 64.8056 39.4771 63.4306 37.0224C62.9821 36.2217 62.6031 35.4014 62.295 34.5668C61.2566 31.7543 58.8752 29.2819 55.8772 29.3134Z" fill="#2AD495"/>
<circle cx="142.428" cy="79.5803" r="7.14517" transform="rotate(117 142.428 79.5803)" fill="#FF0472"/>
<circle cx="130.598" cy="102.799" r="7.14517" transform="rotate(117 130.598 102.799)" fill="#FF0472"/>
<path d="M143.829 59.1111C145.162 56.4256 144.061 53.0969 141.131 52.4619C139.214 52.0464 137.217 51.8759 135.17 51.9565C131.222 52.1119 127.165 53.1987 123.231 55.1547C119.297 57.1107 115.563 59.8977 112.243 63.3564C108.922 66.8152 106.08 70.8781 103.879 75.3131C101.677 79.7481 100.16 84.4683 99.4124 89.2043C98.6651 93.9403 98.7028 98.5993 99.5233 102.915C100.344 107.231 101.931 111.12 104.195 114.359C105.368 116.038 106.712 117.526 108.202 118.801C110.479 120.751 113.796 119.615 115.129 116.93C116.462 114.244 115.273 111.024 113.192 108.866C112.575 108.225 112.001 107.527 111.476 106.774C109.864 104.468 108.734 101.699 108.149 98.6262C107.565 95.5531 107.538 92.2357 108.07 88.8634C108.603 85.4912 109.683 82.1302 111.251 78.9723C112.818 75.8144 114.842 72.9215 117.206 70.4587C119.57 67.9959 122.229 66.0115 125.03 64.6187C127.831 63.2259 130.72 62.4521 133.531 62.3414C134.448 62.3053 135.351 62.34 136.235 62.4444C139.212 62.796 142.496 61.7966 143.829 59.1111Z" fill="#FF0472"/>
<circle cx="7.14517" cy="7.14517" r="7.14517" transform="matrix(0.601815 0.798635 0.798635 -0.601815 21.7852 80.5984)" fill="#EFC02D"/>
<circle cx="7.14517" cy="7.14517" r="7.14517" transform="matrix(0.601815 0.798635 0.798635 -0.601815 37.4678 101.41)" fill="#EFC02D"/>
<path d="M26.858 62.0897C25.0789 59.6765 25.5849 56.2072 28.3602 55.0731C30.1761 54.3309 32.1133 53.8162 34.1433 53.5401C38.0587 53.0075 42.2428 53.3733 46.4565 54.6165C50.6703 55.8597 54.8312 57.9559 58.7018 60.7856C62.5723 63.6153 66.0767 67.1229 69.0148 71.1082C71.9529 75.0936 74.2672 79.4785 75.8256 84.0128C77.384 88.5471 78.1559 93.1419 78.0972 97.5348C78.0386 101.928 77.1506 106.033 75.4839 109.616C74.6198 111.473 73.5551 113.171 72.3091 114.687C70.4049 117.002 66.9412 116.46 65.1621 114.046C63.383 111.633 63.9954 108.256 65.6692 105.768C66.1659 105.03 66.6095 104.243 66.9966 103.411C68.1834 100.86 68.8157 97.9367 68.8574 94.8088C68.8992 91.6808 68.3496 88.4092 67.2399 85.1806C66.1303 81.952 64.4824 78.8297 62.3904 75.992C60.2983 73.1542 57.8031 70.6567 55.0471 68.6418C52.2911 66.627 49.3283 65.1344 46.328 64.2492C43.3276 63.364 40.3484 63.1035 37.5604 63.4827C36.6511 63.6064 35.7679 63.7973 34.9159 64.0535C32.0448 64.9169 28.6371 64.5029 26.858 62.0897Z" fill="#EFC02D"/>
<path d="M85.3762 161.66C86.1225 161 86.2455 159.809 85.5258 159.137C84.3303 158.021 82.9044 157.212 81.3562 156.785C79.248 156.203 77.0223 156.358 75.0015 157.228C72.9808 158.098 71.2699 159.638 70.1168 161.624C68.9637 163.611 68.4281 165.94 68.5878 168.276C68.7474 170.612 69.594 172.832 71.0048 174.615C72.4156 176.399 74.3174 177.652 76.4347 178.195C78.552 178.738 80.7749 178.541 82.7813 177.633C84.2457 176.971 85.5394 175.955 86.5672 174.674C87.2022 173.882 86.9313 172.718 86.1085 172.186C85.2752 171.647 84.1951 171.972 83.4851 172.706C82.8911 173.32 82.194 173.815 81.4254 174.163C80.1039 174.761 78.6398 174.89 77.2452 174.533C75.8507 174.176 74.598 173.35 73.6688 172.175C72.7396 171.001 72.182 169.538 72.0768 168C71.9717 166.461 72.3244 164.927 73.0839 163.619C73.8434 162.31 74.9703 161.296 76.3013 160.723C77.6322 160.15 79.0982 160.048 80.4868 160.431C81.3142 160.66 82.0886 161.053 82.7719 161.586C83.5437 162.189 84.6298 162.32 85.3762 161.66Z" fill="#2AD495"/>
<path d="M82.428 169.95C82.9058 170.274 83.0545 170.964 82.665 171.406C82.1516 171.988 81.5253 172.449 80.826 172.752C79.8078 173.193 78.6864 173.278 77.621 172.994C76.5555 172.711 75.6001 172.073 74.8904 171.172C74.1807 170.271 73.7527 169.153 73.6672 167.976C73.5817 166.798 73.8431 165.622 74.4142 164.613C74.9853 163.605 75.8371 162.815 76.8487 162.357C77.8604 161.899 78.9804 161.795 80.0498 162.061C80.7853 162.244 81.4712 162.595 82.063 163.085C82.51 163.456 82.4615 164.162 82.0359 164.562C81.6105 164.963 80.9687 164.897 80.4821 164.59C80.2059 164.415 79.9052 164.286 79.5894 164.207C78.9391 164.046 78.258 164.109 77.6429 164.388C77.0277 164.666 76.5098 165.146 76.1625 165.759C75.8152 166.373 75.6563 167.088 75.7083 167.804C75.7603 168.52 76.0205 169.2 76.4521 169.748C76.8836 170.296 77.4646 170.683 78.1125 170.856C78.7603 171.028 79.4422 170.977 80.0613 170.708C80.3604 170.579 80.6374 170.402 80.8841 170.185C81.3231 169.799 81.9495 169.625 82.428 169.95Z" fill="#FF0472"/>
<path d="M40.6699 165.946C40.7112 166.626 40.7008 167.327 40.639 168.048C40.5978 168.769 40.5257 169.469 40.4227 170.149C40.2167 171.324 39.8355 172.467 39.2793 173.58C38.723 174.692 37.9092 175.64 36.8378 176.423C35.7253 177.247 34.4582 177.814 33.0366 178.123C31.615 178.411 30.2038 178.586 28.8028 178.648C28.3289 178.689 27.8447 178.7 27.3503 178.679C26.8764 178.679 26.4129 178.627 25.9596 178.524C25.5887 178.463 25.3106 178.349 25.1252 178.184C25.0222 178.123 24.9398 178.04 24.8779 177.937C24.8161 177.834 24.7646 177.731 24.7234 177.628C24.6616 177.525 24.6101 177.422 24.5689 177.319C24.5483 177.196 24.5174 177.072 24.4762 176.948C24.4556 176.845 24.435 176.753 24.4144 176.67C24.4144 176.567 24.4144 176.474 24.4144 176.392V158.746C24.4144 158.602 24.4144 158.468 24.4144 158.344C24.4144 158.22 24.435 158.097 24.4762 157.973C24.5174 157.685 24.5792 157.448 24.6616 157.262C24.744 157.015 24.8573 156.84 25.0016 156.737C25.1252 156.634 25.2488 156.562 25.3724 156.521C25.496 156.459 25.6093 156.407 25.7124 156.366C25.836 156.325 25.9596 156.325 26.0832 156.366C26.2274 156.387 26.3819 156.356 26.5468 156.273L31.7078 156.397C33.0675 156.438 34.2831 156.758 35.3544 157.355C36.4258 157.932 37.3426 158.674 38.1049 159.58C38.8672 160.487 39.4647 161.507 39.8973 162.64C40.33 163.752 40.5875 164.854 40.6699 165.946ZM34.9218 171.818C35.3132 171.2 35.6017 170.489 35.7871 169.686C35.9725 168.882 36.0549 168.069 36.0343 167.244C36.0137 166.4 35.9004 165.586 35.6944 164.803C35.4884 163.999 35.1999 163.289 34.8291 162.671C34.5406 162.217 34.1698 161.846 33.7165 161.558C33.2633 161.27 32.7585 161.053 32.2022 160.909C31.6459 160.744 31.0485 160.631 30.4098 160.569C29.7917 160.507 29.1839 160.476 28.5864 160.476C28.607 161.074 28.6173 161.651 28.6173 162.207C28.6173 162.763 28.6173 163.35 28.6173 163.969C28.5967 164.71 28.5864 165.431 28.5864 166.132C28.5864 166.832 28.5864 167.512 28.5864 168.172V174.476C29.2251 174.455 29.8329 174.424 30.4098 174.383C31.0073 174.321 31.5738 174.198 32.1095 174.012C32.6658 173.827 33.1705 173.569 33.6238 173.24C34.0977 172.89 34.5303 172.416 34.9218 171.818Z" fill="#2AD495"/>
<path d="M50.487 157.231C51.8673 156.716 53.1138 156.49 54.2263 156.552C55.3595 156.613 56.369 156.902 57.255 157.417C58.1409 157.911 58.8929 158.581 59.5109 159.426C60.1496 160.27 60.6647 161.218 61.0562 162.269C61.3652 163.052 61.6021 163.876 61.7669 164.741C61.9318 165.606 62.0245 166.472 62.0451 167.337C62.0863 168.182 62.0554 169.016 61.9524 169.84C61.87 170.664 61.7257 171.427 61.5197 172.127C61.3961 172.601 61.2519 173.034 61.0871 173.425C60.9222 173.817 60.7265 174.208 60.4999 174.6C59.9848 175.485 59.3152 176.207 58.4911 176.763C57.6876 177.319 56.8017 177.711 55.8334 177.937C55.1741 178.102 54.4942 178.184 53.7937 178.184C53.0932 178.164 52.403 178.071 51.7231 177.906C51.0432 177.721 50.3839 177.463 49.7453 177.134C49.1272 176.783 48.5606 176.351 48.0455 175.836C47.4068 175.218 46.8815 174.507 46.4694 173.703C46.0574 172.879 45.738 172.024 45.5114 171.138C45.2848 170.232 45.1405 169.325 45.0787 168.419C45.0169 167.512 45.0169 166.647 45.0787 165.823C45.1405 165.061 45.2848 164.247 45.5114 163.381C45.7586 162.516 46.1089 161.682 46.5621 160.878C47.0154 160.075 47.5614 159.354 48.2 158.715C48.8593 158.056 49.6216 157.561 50.487 157.231ZM57.7185 170.458C57.9657 169.49 58.0688 168.398 58.0276 167.183C57.9863 165.967 57.7906 164.824 57.4404 163.752C57.2137 163.093 56.9253 162.516 56.5751 162.022C56.2454 161.507 55.8437 161.115 55.3698 160.847C54.9165 160.579 54.3809 160.445 53.7628 160.445C53.1447 160.445 52.4545 160.631 51.6922 161.002C51.239 161.228 50.8475 161.537 50.5179 161.929C50.2088 162.32 49.9513 162.763 49.7453 163.258C49.5598 163.752 49.4053 164.267 49.2817 164.803C49.1787 165.339 49.1169 165.854 49.0963 166.348C49.0551 166.884 49.0448 167.45 49.0654 168.048C49.086 168.625 49.1478 169.212 49.2508 169.809C49.3744 170.386 49.5392 170.943 49.7453 171.478C49.9513 171.993 50.2294 172.457 50.5797 172.869C51.1153 173.487 51.7334 173.92 52.4339 174.167C53.155 174.394 53.8658 174.424 54.5663 174.26C55.6994 174.012 56.5648 173.26 57.1622 172.004C57.4095 171.55 57.5949 171.035 57.7185 170.458Z" fill="#2AD495"/>
<path d="M110.441 176.268C110.462 176.392 110.472 176.516 110.472 176.639C110.493 176.742 110.503 176.866 110.503 177.01C110.503 177.257 110.431 177.484 110.287 177.69C110.225 177.793 110.142 177.896 110.039 177.999C109.936 178.081 109.813 178.154 109.669 178.215C109.154 178.504 108.608 178.607 108.031 178.524C107.742 178.442 107.485 178.308 107.258 178.123C107.217 178.081 107.186 178.061 107.165 178.061C107.145 178.04 107.124 178.009 107.104 177.968C107.083 177.948 107.062 177.927 107.042 177.906C107.021 177.865 106.99 177.834 106.949 177.814C106.846 177.711 106.764 177.618 106.702 177.535C106.64 177.432 106.578 177.329 106.516 177.226C106.475 177.123 106.424 177.031 106.362 176.948C106.321 176.845 106.269 176.742 106.207 176.639C106.166 176.557 106.125 176.485 106.084 176.423C106.043 176.341 106.012 176.258 105.991 176.176C105.909 175.99 105.857 175.825 105.836 175.681L105.188 174.167C103.766 174.167 102.344 174.177 100.923 174.198C99.5218 174.198 98.1105 174.188 96.6889 174.167L96.0399 175.681C95.9987 175.764 95.9678 175.846 95.9472 175.928C95.9472 176.011 95.9266 176.093 95.8854 176.176C95.8442 176.258 95.803 176.341 95.7618 176.423C95.7412 176.485 95.7102 176.557 95.669 176.639C95.6072 176.742 95.5454 176.845 95.4836 176.948C95.4424 177.031 95.3909 177.123 95.3291 177.226C95.2879 177.329 95.2364 177.432 95.1746 177.535C95.1128 177.618 95.0304 177.711 94.9273 177.814C94.8861 177.834 94.8552 177.865 94.8346 177.906C94.814 177.927 94.7934 177.948 94.7728 177.968C94.7522 178.009 94.7316 178.04 94.711 178.061C94.6904 178.061 94.6595 178.081 94.6183 178.123C94.3917 178.308 94.1341 178.442 93.8457 178.524C93.2688 178.607 92.7229 178.504 92.2078 178.215C92.0636 178.154 91.9399 178.081 91.8369 177.999C91.7339 177.896 91.6515 177.793 91.5897 177.69C91.4455 177.484 91.3734 177.257 91.3734 177.01C91.3734 176.866 91.3734 176.742 91.3734 176.639C91.394 176.516 91.4146 176.392 91.4352 176.268C91.4764 176.083 91.5279 175.898 91.5897 175.712C91.6515 175.527 91.6824 175.434 91.6824 175.434L98.1105 159.611L98.2959 159.117C98.3371 158.993 98.3886 158.88 98.4504 158.777C98.5122 158.674 98.5637 158.55 98.6049 158.406C98.7079 158.138 98.8213 157.901 98.9449 157.695C99.0067 157.571 99.0788 157.458 99.1612 157.355C99.2436 157.252 99.326 157.149 99.4084 157.046C99.5321 156.881 99.7072 156.747 99.9338 156.644C100.222 156.541 100.552 156.49 100.923 156.49C101.314 156.49 101.654 156.541 101.943 156.644C102.169 156.747 102.344 156.881 102.468 157.046C102.612 157.231 102.767 157.448 102.932 157.695C103.055 157.901 103.168 158.138 103.271 158.406C103.313 158.55 103.364 158.674 103.426 158.777C103.488 158.88 103.539 158.993 103.58 159.117L103.766 159.611L110.194 175.434C110.194 175.434 110.225 175.527 110.287 175.712C110.348 175.898 110.4 176.083 110.441 176.268ZM103.117 168.697C102.849 168.099 102.571 167.481 102.283 166.843C102.015 166.204 101.726 165.555 101.417 164.896C101.335 164.71 101.252 164.525 101.17 164.339C101.088 164.133 101.005 163.938 100.923 163.752C100.861 163.938 100.789 164.133 100.706 164.339C100.624 164.525 100.542 164.71 100.459 164.896C100.15 165.555 99.8514 166.204 99.563 166.843C99.2951 167.481 99.0273 168.099 98.7595 168.697L98.2032 170.057H103.673L103.117 168.697Z" fill="#FF0472"/>
<path d="M133.073 177.01C133.094 177.216 133.073 177.412 133.011 177.597C132.97 177.721 132.908 177.824 132.826 177.906C132.764 177.989 132.682 178.071 132.579 178.154C132.393 178.277 132.167 178.39 131.899 178.493C131.734 178.535 131.569 178.566 131.404 178.586C131.26 178.627 131.106 178.627 130.941 178.586C130.611 178.566 130.323 178.442 130.076 178.215C129.725 177.927 129.437 177.608 129.21 177.257C129.107 177.093 128.994 176.907 128.87 176.701C128.747 176.495 128.633 176.279 128.53 176.052L125.1 169.531C124.935 169.531 124.77 169.542 124.606 169.562C124.441 169.562 124.276 169.573 124.111 169.593C123.678 169.634 123.266 169.645 122.875 169.624C122.504 169.603 122.113 169.603 121.701 169.624H121.113V175.218C121.113 175.382 121.103 175.537 121.083 175.681C121.083 175.825 121.083 175.98 121.083 176.145C121.083 176.248 121.072 176.382 121.052 176.547C121.052 176.711 121.041 176.866 121.021 177.01C120.98 177.237 120.887 177.474 120.743 177.721C120.598 177.948 120.403 178.143 120.155 178.308C119.723 178.576 119.197 178.648 118.579 178.524C118.311 178.463 118.054 178.36 117.807 178.215C117.724 178.154 117.652 178.081 117.59 177.999C117.529 177.896 117.477 177.793 117.436 177.69C117.395 177.587 117.353 177.484 117.312 177.381C117.292 177.257 117.261 177.144 117.22 177.041C117.158 176.835 117.127 176.639 117.127 176.454V158.9C117.127 158.777 117.127 158.653 117.127 158.529C117.147 158.385 117.168 158.262 117.189 158.159C117.209 157.932 117.281 157.705 117.405 157.479C117.467 157.231 117.57 157.056 117.714 156.953C117.838 156.83 118.023 156.727 118.27 156.644C118.538 156.541 118.919 156.5 119.414 156.521C120.341 156.541 121.258 156.552 122.164 156.552C123.071 156.552 123.977 156.572 124.884 156.613C125.481 156.655 126.11 156.727 126.769 156.83C127.449 156.912 128.077 157.067 128.654 157.293C129.025 157.437 129.365 157.582 129.674 157.726C130.065 157.953 130.374 158.169 130.601 158.375C131.322 159.034 131.868 159.827 132.239 160.755C132.61 161.682 132.795 162.619 132.795 163.567C132.795 164.679 132.527 165.699 131.992 166.626C131.477 167.553 130.642 168.244 129.488 168.697C129.447 168.738 129.385 168.769 129.303 168.79C129.241 168.79 129.19 168.8 129.148 168.821L131.992 174.538L132.27 175.032C132.311 175.115 132.363 175.207 132.424 175.31C132.486 175.413 132.538 175.516 132.579 175.619C132.641 175.722 132.692 175.836 132.733 175.959C132.795 176.083 132.857 176.196 132.919 176.299C132.981 176.588 133.032 176.825 133.073 177.01ZM125.347 166.008C125.718 166.008 126.068 165.946 126.398 165.823C126.748 165.679 127.057 165.493 127.325 165.267C127.614 165.04 127.851 164.782 128.036 164.494C128.221 164.185 128.324 163.855 128.345 163.505C128.427 162.475 128.16 161.713 127.541 161.218C126.923 160.703 126.11 160.425 125.1 160.384C124.503 160.342 123.843 160.322 123.122 160.322C122.422 160.322 121.752 160.322 121.113 160.322C121.134 161.167 121.134 162.032 121.113 162.918C121.113 163.783 121.113 164.813 121.113 166.008H125.347Z" fill="#FF0472"/>
<path d="M144.539 160.198L144.477 165.05H145.713C146.558 165.03 147.31 165.019 147.969 165.019C148.629 165.019 149.36 165.03 150.163 165.05H150.318C150.565 165.05 150.802 165.061 151.029 165.081C151.276 165.081 151.513 165.081 151.74 165.081C151.987 165.102 152.224 165.143 152.45 165.205C152.677 165.246 152.904 165.297 153.13 165.359C153.48 165.483 153.769 165.668 153.996 165.916C154.202 166.183 154.305 166.482 154.305 166.812C154.305 166.915 154.305 167.038 154.305 167.183C154.305 167.306 154.284 167.42 154.243 167.523C154.202 167.749 154.068 167.955 153.841 168.141C153.738 168.285 153.542 168.388 153.254 168.45C152.986 168.532 152.718 168.584 152.45 168.604C152.162 168.666 151.873 168.697 151.585 168.697H150.133L144.415 168.728L144.353 174.785L150.503 174.847H151.956C152.121 174.847 152.275 174.847 152.419 174.847C152.564 174.847 152.698 174.857 152.821 174.878C152.986 174.919 153.13 174.95 153.254 174.97C153.398 174.97 153.532 174.991 153.656 175.032C153.903 175.115 154.109 175.228 154.274 175.372C154.48 175.578 154.614 175.795 154.675 176.021C154.696 176.124 154.706 176.237 154.706 176.361C154.727 176.464 154.727 176.577 154.706 176.701C154.706 177.031 154.603 177.329 154.397 177.597C154.15 177.886 153.862 178.071 153.532 178.154C153.099 178.339 152.625 178.432 152.11 178.432C151.884 178.452 151.647 178.463 151.4 178.463C151.152 178.463 150.915 178.473 150.689 178.493H150.503C148.896 178.535 147.228 178.535 145.497 178.493C145.085 178.493 144.755 178.483 144.508 178.463C144.261 178.463 144.034 178.463 143.828 178.463C143.643 178.463 143.447 178.463 143.241 178.463C143.035 178.463 142.767 178.463 142.437 178.463C141.964 178.504 141.572 178.421 141.263 178.215C141.036 178.071 140.861 177.875 140.738 177.628C140.676 177.566 140.645 177.505 140.645 177.443C140.624 177.402 140.604 177.371 140.583 177.35C140.563 177.329 140.542 177.299 140.521 177.257C140.48 177.154 140.449 177.051 140.429 176.948C140.408 176.825 140.398 176.711 140.398 176.608C140.377 176.505 140.357 176.402 140.336 176.299C140.336 176.196 140.326 176.093 140.305 175.99V175.496C140.305 175.413 140.305 175.331 140.305 175.249C140.326 175.166 140.336 175.084 140.336 175.001V172.591L140.398 168.141V164.03C140.398 163.289 140.398 162.629 140.398 162.053C140.418 161.476 140.439 160.847 140.46 160.167V160.013C140.48 159.786 140.49 159.58 140.49 159.395C140.511 159.189 140.521 158.983 140.521 158.777C140.542 158.365 140.655 157.963 140.861 157.571C140.944 157.407 141.026 157.262 141.109 157.139C141.212 157.015 141.345 156.912 141.51 156.83C141.819 156.644 142.139 156.552 142.468 156.552C142.633 156.552 142.757 156.562 142.839 156.582V156.552C143.21 156.552 143.509 156.552 143.735 156.552C143.962 156.552 144.178 156.552 144.384 156.552C144.611 156.552 144.848 156.552 145.095 156.552C145.342 156.531 145.682 156.521 146.115 156.521C146.939 156.5 147.722 156.49 148.464 156.49C149.205 156.49 149.968 156.5 150.751 156.521H150.874C151.101 156.541 151.338 156.552 151.585 156.552C151.832 156.552 152.069 156.562 152.296 156.582C152.522 156.582 152.749 156.613 152.976 156.675C153.202 156.716 153.429 156.778 153.656 156.861C154.006 156.964 154.294 157.139 154.521 157.386C154.706 157.674 154.799 157.963 154.799 158.251C154.799 158.375 154.799 158.499 154.799 158.622C154.799 158.725 154.778 158.828 154.737 158.931C154.717 159.137 154.593 159.354 154.366 159.58C154.284 159.621 154.191 159.673 154.088 159.735C154.006 159.797 153.903 159.848 153.779 159.889C153.656 159.93 153.522 159.961 153.377 159.982C153.254 159.982 153.13 159.992 153.007 160.013C152.842 160.054 152.687 160.075 152.543 160.075C152.419 160.075 152.275 160.075 152.11 160.075H150.72L144.539 160.106V160.198Z" fill="#FF0472"/>
</svg>
