<svg width="52" height="41" viewBox="0 0 52 41" fill="none" xmlns="http://www.w3.org/2000/svg">
<circle cx="2.1533" cy="2.1533" r="2.1533" transform="matrix(-1 0 0 1 31.6255 4.25623)" fill="#2AD495"/>
<circle cx="2.1533" cy="2.1533" r="2.1533" transform="matrix(-1 0 0 1 23.7722 4.25623)" fill="#2AD495"/>
<path d="M35.1602 8.83407C36.0637 8.84355 36.8069 9.59453 36.5766 10.4682C36.4258 11.0398 36.1984 11.5995 35.8967 12.1381C35.3147 13.1771 34.4678 14.1177 33.4044 14.9064C32.341 15.6951 31.0818 16.3164 29.6987 16.7348C28.3157 17.1531 26.8359 17.3604 25.3438 17.3447C23.8518 17.3291 22.3767 17.0908 21.0027 16.6435C19.6288 16.1962 18.3829 15.5487 17.3362 14.7378C16.2896 13.927 15.4626 12.9688 14.9026 11.9178C14.6122 11.3729 14.3966 10.8087 14.2579 10.234C14.0459 9.35569 14.8047 8.62047 15.7082 8.62995C16.6117 8.63943 17.3136 9.39941 17.6086 10.2534C17.6962 10.5068 17.8052 10.7564 17.9353 11.0004C18.334 11.7487 18.9229 12.4311 19.6681 13.0084C20.4134 13.5858 21.3005 14.0468 22.2788 14.3653C23.2571 14.6838 24.3075 14.8535 25.3699 14.8646C26.4323 14.8758 27.486 14.7282 28.4707 14.4303C29.4555 14.1324 30.3521 13.69 31.1093 13.1285C31.8665 12.5669 32.4695 11.8971 32.8839 11.1573C33.0191 10.916 33.1333 10.6688 33.2262 10.4173C33.5391 9.56967 34.2568 8.82459 35.1602 8.83407Z" fill="#2AD495"/>
<circle cx="2.1533" cy="2.1533" r="2.1533" transform="matrix(0.45399 0.891006 0.891006 -0.45399 6.18091 23.0417)" fill="#FF0472"/>
<circle cx="2.1533" cy="2.1533" r="2.1533" transform="matrix(0.45399 0.891006 0.891006 -0.45399 9.74634 30.039)" fill="#FF0472"/>
<path d="M8.65499 17.814C8.25327 17.0047 8.58498 16.0016 9.468 15.8102C10.0458 15.685 10.6477 15.6336 11.2646 15.6579C12.4545 15.7047 13.6771 16.0322 14.8626 16.6217C16.0482 17.2112 17.1734 18.0511 18.174 19.0934C19.1747 20.1358 20.0312 21.3602 20.6946 22.6967C21.358 24.0333 21.8154 25.4558 22.0406 26.8831C22.2659 28.3103 22.2545 29.7144 22.0072 31.0151C21.7599 32.3158 21.2816 33.4876 20.5994 34.4637C20.2457 34.9698 19.8409 35.4181 19.3918 35.8026C18.7055 36.3902 17.7059 36.0479 17.3042 35.2386C16.9024 34.4293 17.2609 33.4589 17.8879 32.8083C18.0739 32.6152 18.2468 32.4048 18.4052 32.1781C18.8909 31.483 19.2315 30.6486 19.4076 29.7225C19.5837 28.7964 19.5918 27.7966 19.4314 26.7803C19.2711 25.7641 18.9454 24.7512 18.473 23.7995C18.0006 22.8478 17.3907 21.976 16.6782 21.2338C15.9657 20.4916 15.1645 19.8935 14.3204 19.4738C13.4763 19.0541 12.6057 18.8209 11.7584 18.7875C11.4821 18.7766 11.21 18.7871 10.9437 18.8185C10.0464 18.9245 9.05671 18.6233 8.65499 17.814Z" fill="#FF0472"/>
<circle cx="42.4187" cy="24.7133" r="2.1533" transform="rotate(127 42.4187 24.7133)" fill="#EFC02D"/>
<circle cx="37.6929" cy="30.9852" r="2.1533" transform="rotate(127 37.6929 30.9852)" fill="#EFC02D"/>
<path d="M43.9059 18.7117C44.442 17.9844 44.2896 16.9389 43.4532 16.5971C42.9059 16.3735 42.3221 16.2183 41.7103 16.1351C40.5304 15.9746 39.2694 16.0849 37.9996 16.4595C36.7297 16.8342 35.4757 17.4659 34.3093 18.3187C33.1428 19.1714 32.0867 20.2285 31.2013 21.4295C30.3158 22.6306 29.6184 23.9521 29.1488 25.3185C28.6791 26.685 28.4465 28.0697 28.4642 29.3936C28.4818 30.7175 28.7495 31.9546 29.2517 33.0343C29.5122 33.5941 29.833 34.1059 30.2085 34.5625C30.7824 35.2604 31.8262 35.0969 32.3624 34.3696C32.8985 33.6424 32.714 32.6244 32.2095 31.8748C32.0598 31.6524 31.9262 31.4152 31.8095 31.1644C31.4519 30.3956 31.2613 29.5147 31.2487 28.5721C31.2361 27.6294 31.4018 26.6434 31.7362 25.6705C32.0706 24.6975 32.5672 23.7565 33.1977 22.9013C33.8281 22.0461 34.5801 21.2935 35.4107 20.6863C36.2412 20.0791 37.1341 19.6292 38.0383 19.3625C38.9425 19.0957 39.8403 19.0172 40.6805 19.1315C40.9546 19.1688 41.2208 19.2263 41.4775 19.3035C42.3428 19.5637 43.3697 19.4389 43.9059 18.7117Z" fill="#EFC02D"/>
</svg>
