<svg width="81" height="24" viewBox="0 0 81 24" fill="none" xmlns="http://www.w3.org/2000/svg">
<path d="M37.3853 7.38739C37.834 6.9907 37.9079 6.2746 37.4753 5.87074C36.7567 5.1999 35.8997 4.7138 34.9691 4.45689C33.7019 4.10707 32.3641 4.2004 31.1495 4.72338C29.9349 5.24636 28.9066 6.17182 28.2135 7.36571C27.5204 8.55959 27.1985 9.9599 27.2945 11.3638C27.3904 12.7677 27.8992 14.1022 28.7472 15.1742C29.5952 16.2461 30.7383 16.9997 32.0109 17.3258C33.2836 17.652 34.6197 17.5337 35.8256 16.9881C36.7059 16.5899 37.4834 15.9792 38.1012 15.2092C38.4829 14.7335 38.3201 14.0337 37.8255 13.714C37.3246 13.3902 36.6755 13.5855 36.2487 14.0265C35.8916 14.3955 35.4726 14.6933 35.0107 14.9023C34.2164 15.2616 33.3363 15.3396 32.4981 15.1247C31.6599 14.9099 30.907 14.4136 30.3485 13.7075C29.7899 13.0015 29.4548 12.1225 29.3916 11.1978C29.3284 10.2731 29.5404 9.35082 29.9969 8.56446C30.4534 7.77811 31.1307 7.16855 31.9307 6.82409C32.7307 6.47963 33.6119 6.41815 34.4465 6.64856C34.9439 6.78586 35.4093 7.02255 35.82 7.343C36.2839 7.70493 36.9367 7.78408 37.3853 7.38739Z" fill="#2AD495"/>
<path d="M35.6134 12.37C35.9006 12.565 35.99 12.9796 35.7558 13.2452C35.4473 13.5953 35.0709 13.8721 34.6505 14.0542C34.0385 14.3193 33.3645 14.3703 32.7241 14.1999C32.0837 14.0295 31.5094 13.6463 31.0828 13.1048C30.6562 12.5634 30.399 11.891 30.3476 11.1833C30.2962 10.4756 30.4533 9.76851 30.7966 9.16232C31.1399 8.55612 31.6519 8.08168 32.2599 7.80632C32.868 7.53096 33.5412 7.46868 34.184 7.62833C34.6261 7.73813 35.0383 7.94906 35.394 8.24388C35.6627 8.46662 35.6335 8.89091 35.3777 9.1317C35.122 9.37242 34.7363 9.33283 34.4438 9.14821C34.2778 9.04344 34.097 8.96565 33.9072 8.91851C33.5164 8.82143 33.107 8.8593 32.7373 9.02674C32.3675 9.19418 32.0562 9.48268 31.8475 9.85129C31.6387 10.2199 31.5432 10.6499 31.5744 11.0802C31.6057 11.5106 31.7621 11.9194 32.0215 12.2486C32.2809 12.5779 32.6301 12.8109 33.0195 12.9145C33.4089 13.0181 33.8188 12.9871 34.1909 12.8259C34.3706 12.7481 34.5372 12.6417 34.6854 12.5114C34.9493 12.2796 35.3258 12.1748 35.6134 12.37Z" fill="#FF0472"/>
<path d="M10.5136 9.53271C10.5384 9.94137 10.5322 10.3624 10.4951 10.7958C10.4703 11.2293 10.427 11.6503 10.365 12.059C10.2412 12.7648 10.0121 13.4521 9.67775 14.1208C9.34339 14.7895 8.85424 15.3592 8.2103 15.8298C7.54159 16.3251 6.78 16.6656 5.92553 16.8514C5.07107 17.0248 4.22279 17.13 3.38071 17.1672C3.09589 17.1919 2.80488 17.1981 2.50767 17.1858C2.22285 17.1858 1.94422 17.1548 1.67178 17.0929C1.44888 17.0557 1.2817 16.9876 1.17025 16.8885C1.10833 16.8514 1.05879 16.8019 1.02164 16.7399C0.984493 16.678 0.953534 16.6161 0.928767 16.5542C0.891616 16.4923 0.860657 16.4304 0.83589 16.3684C0.823507 16.2941 0.804931 16.2198 0.780164 16.1455C0.767781 16.0836 0.755397 16.0279 0.743014 15.9784C0.743014 15.9164 0.743014 15.8607 0.743014 15.8112V5.20466C0.743014 5.11798 0.743014 5.03748 0.743014 4.96318C0.743014 4.88888 0.755397 4.81458 0.780164 4.74028C0.804931 4.56691 0.842082 4.4245 0.891616 4.31304C0.94115 4.16444 1.00926 4.05918 1.09594 3.99726C1.17025 3.93535 1.24455 3.892 1.31885 3.86724C1.39315 3.83009 1.46126 3.79913 1.52318 3.77436C1.59748 3.74959 1.67178 3.74959 1.74608 3.77436C1.83277 3.78674 1.92564 3.76817 2.02471 3.71863L5.12679 3.79294C5.94411 3.8177 6.67474 4.00965 7.31868 4.36877C7.96263 4.71551 8.5137 5.16132 8.97189 5.70619C9.43008 6.25107 9.7892 6.86406 10.0493 7.54515C10.3093 8.21387 10.4641 8.87639 10.5136 9.53271ZM7.05863 13.062C7.29392 12.6905 7.46729 12.2633 7.57874 11.7803C7.69019 11.2974 7.73972 10.8082 7.72734 10.3129C7.71496 9.80515 7.64685 9.316 7.52301 8.84543C7.39918 8.36247 7.22581 7.93524 7.0029 7.56373C6.82953 7.29129 6.60663 7.06839 6.33419 6.89502C6.06175 6.72165 5.75835 6.59162 5.424 6.50493C5.08964 6.40587 4.73052 6.33776 4.34663 6.30061C3.97512 6.26345 3.60981 6.24488 3.25068 6.24488C3.26307 6.604 3.26926 6.95074 3.26926 7.2851C3.26926 7.61945 3.26926 7.97239 3.26926 8.34389C3.25688 8.7897 3.25068 9.22313 3.25068 9.64417C3.25068 10.0652 3.25068 10.4739 3.25068 10.8701V14.6595C3.63457 14.6471 3.99989 14.6285 4.34663 14.6038C4.70575 14.5666 5.0463 14.4923 5.36827 14.3809C5.70263 14.2694 6.00603 14.1146 6.27846 13.9165C6.56329 13.706 6.82334 13.4212 7.05863 13.062Z" fill="#2AD495"/>
<path d="M16.4144 4.29465C17.2441 3.98506 17.9933 3.84884 18.662 3.886C19.3431 3.92315 19.9499 4.09652 20.4824 4.4061C21.0149 4.70331 21.4669 5.10578 21.8384 5.6135C22.2223 6.12123 22.5319 6.69087 22.7672 7.32243C22.9529 7.79301 23.0953 8.28835 23.1944 8.80846C23.2935 9.32857 23.3492 9.84868 23.3616 10.3688C23.3863 10.8765 23.3678 11.378 23.3058 11.8734C23.2563 12.3687 23.1696 12.8269 23.0458 13.248C22.9715 13.5328 22.8848 13.7928 22.7857 14.0281C22.6867 14.2634 22.569 14.4987 22.4328 14.734C22.1232 15.2665 21.7207 15.6999 21.2254 16.0343C20.7424 16.3686 20.21 16.6039 19.6279 16.7401C19.2317 16.8392 18.823 16.8887 18.402 16.8887C17.9809 16.8763 17.5661 16.8206 17.1574 16.7216C16.7487 16.6101 16.3525 16.4553 15.9686 16.2572C15.5971 16.0466 15.2565 15.7866 14.9469 15.477C14.5631 15.1055 14.2473 14.6783 13.9996 14.1953C13.7519 13.7 13.56 13.186 13.4238 12.6536C13.2875 12.1087 13.2009 11.5638 13.1637 11.0189C13.1266 10.474 13.1266 9.95394 13.1637 9.4586C13.2009 9.0004 13.2875 8.51125 13.4238 7.99114C13.5724 7.47104 13.7829 6.9695 14.0553 6.48654C14.3278 6.00358 14.6559 5.57016 15.0398 5.18627C15.4361 4.78999 15.8943 4.49279 16.4144 4.29465ZM20.761 12.2449C20.9096 11.6629 20.9715 11.0065 20.9468 10.2759C20.922 9.54528 20.8044 8.85799 20.5938 8.21405C20.4576 7.81778 20.2843 7.47104 20.0737 7.17383C19.8756 6.86424 19.6341 6.62895 19.3493 6.46797C19.0769 6.30698 18.7549 6.22649 18.3834 6.22649C18.0119 6.22649 17.597 6.33794 17.1388 6.56084C16.8664 6.69706 16.6311 6.88282 16.433 7.1181C16.2472 7.35339 16.0924 7.61964 15.9686 7.91684C15.8571 8.21405 15.7643 8.52364 15.69 8.84561C15.628 9.16758 15.5909 9.47717 15.5785 9.77438C15.5537 10.0963 15.5475 10.4369 15.5599 10.796C15.5723 11.1428 15.6095 11.4957 15.6714 11.8548C15.7457 12.2016 15.8447 12.5359 15.9686 12.8579C16.0924 13.1675 16.2596 13.4461 16.4701 13.6938C16.7921 14.0653 17.1636 14.3253 17.5846 14.4739C18.0181 14.6102 18.4453 14.6287 18.8663 14.5297C19.5474 14.3811 20.0675 13.9291 20.4267 13.1737C20.5753 12.9012 20.6867 12.5916 20.761 12.2449Z" fill="#2AD495"/>
<path d="M52.4508 15.7371C52.4632 15.8114 52.4694 15.8857 52.4694 15.96C52.4818 16.0219 52.488 16.0962 52.488 16.1829C52.488 16.3315 52.4446 16.4677 52.3579 16.5915C52.3208 16.6534 52.2713 16.7154 52.2093 16.7773C52.1474 16.8268 52.0731 16.8702 51.9864 16.9073C51.6769 17.0807 51.3487 17.1426 51.0019 17.0931C50.8286 17.0435 50.6738 16.963 50.5376 16.8516C50.5128 16.8268 50.4942 16.8144 50.4818 16.8144C50.4695 16.802 50.4571 16.7835 50.4447 16.7587C50.4323 16.7463 50.4199 16.7339 50.4075 16.7216C50.3952 16.6968 50.3766 16.6782 50.3518 16.6658C50.2899 16.6039 50.2404 16.5482 50.2032 16.4986C50.1661 16.4367 50.1289 16.3748 50.0918 16.3129C50.067 16.251 50.036 16.1953 49.9989 16.1457C49.9741 16.0838 49.9432 16.0219 49.906 15.96C49.8812 15.9104 49.8565 15.8671 49.8317 15.8299C49.8069 15.7804 49.7884 15.7309 49.776 15.6813C49.7264 15.5699 49.6955 15.4708 49.6831 15.3841L49.293 14.4739C48.4385 14.4739 47.5841 14.4801 46.7296 14.4925C45.8875 14.4925 45.0393 14.4863 44.1848 14.4739L43.7947 15.3841C43.7699 15.4337 43.7514 15.4832 43.739 15.5327C43.739 15.5823 43.7266 15.6318 43.7018 15.6813C43.6771 15.7309 43.6523 15.7804 43.6275 15.8299C43.6152 15.8671 43.5966 15.9104 43.5718 15.96C43.5347 16.0219 43.4975 16.0838 43.4604 16.1457C43.4356 16.1953 43.4046 16.251 43.3675 16.3129C43.3427 16.3748 43.3118 16.4367 43.2746 16.4986C43.2375 16.5482 43.1879 16.6039 43.126 16.6658C43.1012 16.6782 43.0827 16.6968 43.0703 16.7216C43.0579 16.7339 43.0455 16.7463 43.0331 16.7587C43.0207 16.7835 43.0084 16.802 42.996 16.8144C42.9836 16.8144 42.965 16.8268 42.9403 16.8516C42.804 16.963 42.6492 17.0435 42.4759 17.0931C42.1291 17.1426 41.801 17.0807 41.4914 16.9073C41.4047 16.8702 41.3304 16.8268 41.2685 16.7773C41.2066 16.7154 41.157 16.6534 41.1199 16.5915C41.0332 16.4677 40.9898 16.3315 40.9898 16.1829C40.9898 16.0962 40.9898 16.0219 40.9898 15.96C41.0022 15.8857 41.0146 15.8114 41.027 15.7371C41.0518 15.6256 41.0827 15.5142 41.1199 15.4027C41.157 15.2913 41.1756 15.2355 41.1756 15.2355L45.0393 5.72495L45.1507 5.42775C45.1755 5.35345 45.2064 5.28534 45.2436 5.22342C45.2807 5.1615 45.3117 5.0872 45.3365 5.00052C45.3984 4.83953 45.4665 4.69712 45.5408 4.57328C45.5779 4.49898 45.6213 4.43087 45.6708 4.36895C45.7204 4.30704 45.7699 4.24512 45.8194 4.1832C45.8937 4.08413 45.999 4.00364 46.1352 3.94172C46.3086 3.8798 46.5067 3.84884 46.7296 3.84884C46.9649 3.84884 47.1692 3.8798 47.3426 3.94172C47.4788 4.00364 47.5841 4.08413 47.6584 4.1832C47.7451 4.29465 47.8379 4.42468 47.937 4.57328C48.0113 4.69712 48.0794 4.83953 48.1413 5.00052C48.1661 5.0872 48.1971 5.1615 48.2342 5.22342C48.2714 5.28534 48.3023 5.35345 48.3271 5.42775L48.4385 5.72495L52.3022 15.2355C52.3022 15.2355 52.3208 15.2913 52.3579 15.4027C52.3951 15.5142 52.4261 15.6256 52.4508 15.7371ZM48.0485 11.1861C47.8875 10.827 47.7203 10.4555 47.5469 10.0716C47.3859 9.68769 47.2126 9.29761 47.0268 8.90134C46.9773 8.78988 46.9278 8.67843 46.8782 8.56698C46.8287 8.44314 46.7792 8.3255 46.7296 8.21405C46.6925 8.3255 46.6491 8.44314 46.5996 8.56698C46.5501 8.67843 46.5005 8.78988 46.451 8.90134C46.2652 9.29761 46.0857 9.68769 45.9123 10.0716C45.7513 10.4555 45.5903 10.827 45.4293 11.1861L45.095 12.0034H48.3828L48.0485 11.1861Z" fill="#FF0472"/>
<path d="M66.054 16.1829C66.0663 16.3067 66.054 16.4243 66.0168 16.5358C65.992 16.6101 65.9549 16.672 65.9054 16.7216C65.8682 16.7711 65.8187 16.8206 65.7568 16.8702C65.6453 16.9445 65.5091 17.0126 65.3481 17.0745C65.249 17.0993 65.15 17.1178 65.0509 17.1302C64.9642 17.155 64.8713 17.155 64.7723 17.1302C64.5741 17.1178 64.4008 17.0435 64.2522 16.9073C64.0416 16.7339 63.8683 16.542 63.732 16.3315C63.6701 16.2324 63.602 16.121 63.5277 15.9971C63.4534 15.8733 63.3853 15.7433 63.3234 15.607L61.2615 11.6876C61.1625 11.6876 61.0634 11.6938 60.9643 11.7062C60.8653 11.7062 60.7662 11.7124 60.6671 11.7248C60.4071 11.7496 60.1594 11.7557 59.9241 11.7434C59.7012 11.731 59.4659 11.731 59.2182 11.7434H58.8653V15.1055C58.8653 15.2046 58.8591 15.2974 58.8467 15.3841C58.8467 15.4708 58.8467 15.5637 58.8467 15.6628C58.8467 15.7247 58.8405 15.8052 58.8282 15.9042C58.8282 16.0033 58.822 16.0962 58.8096 16.1829C58.7848 16.3191 58.7291 16.4615 58.6424 16.6101C58.5557 16.7463 58.4381 16.864 58.2895 16.963C58.0294 17.124 57.7136 17.1674 57.3421 17.0931C57.1811 17.0559 57.0263 16.994 56.8777 16.9073C56.8282 16.8702 56.7849 16.8268 56.7477 16.7773C56.7106 16.7154 56.6796 16.6534 56.6548 16.5915C56.6301 16.5296 56.6053 16.4677 56.5805 16.4058C56.5682 16.3315 56.5496 16.2634 56.5248 16.2014C56.4877 16.0776 56.4691 15.96 56.4691 15.8485V5.29772C56.4691 5.22342 56.4691 5.14912 56.4691 5.07482C56.4815 4.98813 56.4939 4.91383 56.5062 4.85191C56.5186 4.71569 56.562 4.57947 56.6363 4.44325C56.6734 4.29465 56.7353 4.18939 56.822 4.12747C56.8963 4.05317 57.0078 3.99126 57.1564 3.94172C57.3174 3.8798 57.5465 3.85504 57.8437 3.86742C58.4009 3.8798 58.952 3.886 59.4969 3.886C60.0417 3.886 60.5866 3.89838 61.1315 3.92315C61.4906 3.94791 61.8683 3.99126 62.2646 4.05317C62.6733 4.10271 63.0509 4.19558 63.3977 4.3318C63.6206 4.41849 63.8249 4.50517 64.0107 4.59186C64.246 4.72808 64.4317 4.8581 64.5679 4.98194C65.0014 5.37821 65.3295 5.85498 65.5524 6.41224C65.7753 6.9695 65.8868 7.53295 65.8868 8.1026C65.8868 8.77131 65.7258 9.38429 65.4038 9.94155C65.0942 10.4988 64.5927 10.9137 63.8992 11.1861C63.8745 11.2109 63.8373 11.2294 63.7878 11.2418C63.7506 11.2418 63.7197 11.248 63.6949 11.2604L65.4038 14.6968L65.571 14.994C65.5958 15.0436 65.6267 15.0993 65.6639 15.1612C65.701 15.2231 65.732 15.2851 65.7568 15.347C65.7939 15.4089 65.8249 15.477 65.8496 15.5513C65.8868 15.6256 65.9239 15.6937 65.9611 15.7556C65.9982 15.929 66.0292 16.0714 66.054 16.1829ZM61.4101 9.57005C61.633 9.57005 61.8436 9.5329 62.0417 9.4586C62.2522 9.37191 62.438 9.26046 62.5989 9.12424C62.7723 8.98802 62.9147 8.83323 63.0262 8.65986C63.1376 8.4741 63.1996 8.27597 63.2119 8.06545C63.2615 7.44627 63.1005 6.98808 62.729 6.69087C62.3575 6.38128 61.8683 6.2141 61.2615 6.18934C60.9024 6.16457 60.5061 6.15219 60.0727 6.15219C59.6517 6.15219 59.2492 6.15219 58.8653 6.15219C58.8777 6.65991 58.8777 7.18002 58.8653 7.71251C58.8653 8.23262 58.8653 8.8518 58.8653 9.57005H61.4101Z" fill="#FF0472"/>
<path d="M72.9455 6.07789L72.9084 8.99421H73.6514C74.1591 8.98183 74.6111 8.97564 75.0074 8.97564C75.4037 8.97564 75.8433 8.98183 76.3263 8.99421H76.4191C76.5677 8.99421 76.7102 9.0004 76.8464 9.01279C76.995 9.01279 77.1374 9.01279 77.2736 9.01279C77.4222 9.02517 77.5646 9.04994 77.7008 9.08709C77.8371 9.11186 77.9733 9.14282 78.1095 9.17997C78.32 9.25427 78.4934 9.36572 78.6296 9.51432C78.7534 9.67531 78.8154 9.85487 78.8154 10.053C78.8154 10.1149 78.8154 10.1892 78.8154 10.2759C78.8154 10.3502 78.803 10.4183 78.7782 10.4802C78.7534 10.6165 78.6729 10.7403 78.5367 10.8517C78.4748 10.9384 78.3572 11.0003 78.1838 11.0375C78.0228 11.087 77.8618 11.118 77.7008 11.1304C77.5275 11.1675 77.3541 11.1861 77.1807 11.1861H76.3077L72.8712 11.2047L72.8341 14.8454L76.5306 14.8826H77.4036C77.5027 14.8826 77.5956 14.8826 77.6823 14.8826C77.7689 14.8826 77.8494 14.8888 77.9237 14.9012C78.0228 14.9259 78.1095 14.9445 78.1838 14.9569C78.2705 14.9569 78.351 14.9693 78.4253 14.994C78.5739 15.0436 78.6977 15.1117 78.7968 15.1984C78.9206 15.3222 79.0011 15.4522 79.0383 15.5885C79.0506 15.6504 79.0568 15.7185 79.0568 15.7928C79.0692 15.8547 79.0692 15.9228 79.0568 15.9971C79.0568 16.1953 78.9949 16.3748 78.8711 16.5358C78.7225 16.7092 78.5491 16.8206 78.351 16.8702C78.0909 16.9816 77.8061 17.0373 77.4965 17.0373C77.3603 17.0497 77.2179 17.0559 77.0693 17.0559C76.9207 17.0559 76.7783 17.0621 76.642 17.0745H76.5306C75.5647 17.0993 74.5616 17.0993 73.5214 17.0745C73.2737 17.0745 73.0756 17.0683 72.927 17.0559C72.7784 17.0559 72.6422 17.0559 72.5183 17.0559C72.4069 17.0559 72.2892 17.0559 72.1654 17.0559C72.0415 17.0559 71.8806 17.0559 71.6824 17.0559C71.3976 17.0807 71.1623 17.0311 70.9766 16.9073C70.8403 16.8206 70.7351 16.703 70.6608 16.5544C70.6236 16.5172 70.6051 16.4801 70.6051 16.4429C70.5927 16.4182 70.5803 16.3996 70.5679 16.3872C70.5555 16.3748 70.5431 16.3562 70.5308 16.3315C70.506 16.2696 70.4874 16.2076 70.475 16.1457C70.4626 16.0714 70.4565 16.0033 70.4565 15.9414C70.4441 15.8795 70.4317 15.8176 70.4193 15.7556C70.4193 15.6937 70.4131 15.6318 70.4007 15.5699V15.2727C70.4007 15.2231 70.4007 15.1736 70.4007 15.1241C70.4131 15.0745 70.4193 15.025 70.4193 14.9755V13.5266L70.4565 10.8517V8.38123C70.4565 7.93542 70.4565 7.53915 70.4565 7.19241C70.4688 6.84567 70.4812 6.46797 70.4936 6.05931V5.96643C70.506 5.83021 70.5122 5.70638 70.5122 5.59493C70.5246 5.47109 70.5308 5.34726 70.5308 5.22342C70.5431 4.97575 70.6112 4.73427 70.7351 4.49898C70.7846 4.39991 70.8342 4.31323 70.8837 4.23893C70.9456 4.16463 71.0261 4.10271 71.1252 4.05317C71.3109 3.94172 71.5029 3.886 71.701 3.886C71.8001 3.886 71.8744 3.89219 71.9239 3.90457V3.886C72.1468 3.886 72.3264 3.886 72.4626 3.886C72.5988 3.886 72.7288 3.886 72.8527 3.886C72.9889 3.886 73.1313 3.886 73.2799 3.886C73.4285 3.87361 73.6328 3.86742 73.8929 3.86742C74.3882 3.85504 74.8588 3.84884 75.3046 3.84884C75.7504 3.84884 76.2086 3.85504 76.6792 3.86742H76.7535C76.8897 3.8798 77.0321 3.886 77.1807 3.886C77.3293 3.886 77.4717 3.89219 77.608 3.90457C77.7442 3.90457 77.8804 3.92315 78.0166 3.9603C78.1528 3.98506 78.2891 4.02221 78.4253 4.07175C78.6358 4.13367 78.8092 4.23893 78.9454 4.38753C79.0568 4.5609 79.1126 4.73427 79.1126 4.90764C79.1126 4.98194 79.1126 5.05624 79.1126 5.13054C79.1126 5.19246 79.1002 5.25438 79.0754 5.3163C79.063 5.44013 78.9887 5.57016 78.8525 5.70638C78.803 5.73115 78.7472 5.7621 78.6853 5.79925C78.6358 5.83641 78.5739 5.86736 78.4996 5.89213C78.4253 5.9169 78.3448 5.93547 78.2581 5.94786C78.1838 5.94786 78.1095 5.95405 78.0352 5.96643C77.9361 5.9912 77.8432 6.00358 77.7566 6.00358C77.6823 6.00358 77.5956 6.00358 77.4965 6.00358H76.6606L72.9455 6.02216V6.07789Z" fill="#FF0472"/>
</svg>
