<svg width="29" height="23" viewBox="0 0 29 23" fill="none" xmlns="http://www.w3.org/2000/svg">
<path d="M28.0312 9.34375H25.1562V6.46875C25.1562 6.07344 24.8328 5.75 24.4375 5.75H23C22.6047 5.75 22.2812 6.07344 22.2812 6.46875V9.34375H19.4062C19.0109 9.34375 18.6875 9.66719 18.6875 10.0625V11.5C18.6875 11.8953 19.0109 12.2188 19.4062 12.2188H22.2812V15.0938C22.2812 15.4891 22.6047 15.8125 23 15.8125H24.4375C24.8328 15.8125 25.1562 15.4891 25.1562 15.0938V12.2188H28.0312C28.4266 12.2188 28.75 11.8953 28.75 11.5V10.0625C28.75 9.66719 28.4266 9.34375 28.0312 9.34375ZM10.0625 11.5C13.2385 11.5 15.8125 8.92598 15.8125 5.75C15.8125 2.57402 13.2385 0 10.0625 0C6.88652 0 4.3125 2.57402 4.3125 5.75C4.3125 8.92598 6.88652 11.5 10.0625 11.5ZM14.0875 12.9375H13.3373C12.34 13.3957 11.2305 13.6562 10.0625 13.6562C8.89453 13.6562 7.78945 13.3957 6.7877 12.9375H6.0375C2.7043 12.9375 0 15.6418 0 18.975V20.8438C0 22.0342 0.96582 23 2.15625 23H17.9688C19.1592 23 20.125 22.0342 20.125 20.8438V18.975C20.125 15.6418 17.4207 12.9375 14.0875 12.9375Z" fill="#090F47"/>
</svg>
